<svg xmlns="http://www.w3.org/2000/svg" xmlns:xlink="http://www.w3.org/1999/xlink" viewBox="0 0 454.62 128.28"><defs><style>.cls-1{fill:none;clip-rule:evenodd;}.cls-2,.cls-3{fill:#00adee;}.cls-13,.cls-2,.cls-4{fill-rule:evenodd;}.cls-2,.cls-4,.cls-7,.cls-9{opacity:0.5;}.cls-4,.cls-5{fill:#e90b4e;}.cls-6{clip-path:url(#clip-path);}.cls-7{fill:url(#linear-gradient);}.cls-8{clip-path:url(#clip-path-2);}.cls-9{fill:url(#linear-gradient-2);}.cls-10{fill:#9eee00;}.cls-11{fill:#67789b;}.cls-12{fill:#fff;}.cls-13{fill:#a2b0cb;}.cls-14{fill:#9fef00;}</style><clipPath id="clip-path"><path class="cls-1" d="M241.68,43.51h3.23c0,.66,0,1.32.06,2h-3.34c.05-.65.05-1.31.05-2"/></clipPath><linearGradient id="linear-gradient" x1="243.3" y1="-1.71" x2="243.3" y2="147.76" gradientUnits="userSpaceOnUse"><stop offset="0" stop-color="#0d5410"/><stop offset="0.46" stop-color="#0c1f0e"/><stop offset="1" stop-color="#085914"/></linearGradient><clipPath id="clip-path-2"><path class="cls-1" d="M123.82,43.67c-.16,1-.27,2-.33,3h4.57c.16-1,.22-2,.33-3h-4.57"/></clipPath><linearGradient id="linear-gradient-2" x1="125.94" y1="-1.71" x2="125.94" y2="147.76" xlink:href="#linear-gradient"/></defs><g id="Layer_2" data-name="Layer 2"><g id="Layer_1-2" data-name="Layer 1"><path class="cls-2" d="M242.39,43.51h3.23c0,.66,0,1.32.06,2h-3.34c0-.65,0-1.31,0-2"/><path class="cls-2" d="M195.94,52.91h7.47c-.06.63,0,1.29,0,2h-7.52c.05-.66,0-1.32.05-2"/><path class="cls-2" d="M124.54,43.67a28.74,28.74,0,0,0-.34,3h4.57c.17-1,.22-2,.33-3h-4.56"/><path class="cls-3" d="M268.57,37c0-1.14-.11-2.32-.11-3.45h-15.2c.05,1.13.11,2.31.05,3.45h3.9c-.06.61,0,1.21,0,1.81h4.12c.06.68.06,1.34.17,2h-4.23c.05,2.27,0,4.51.11,6.78s.11,4.53.16,6.8h-3.78c0,1.14.05,2.3.05,3.45h15.54c-.11-1.15-.11-2.31-.16-3.45H265.4c-.06-.64-.11-1.25-.11-1.87h-4.52c0-.68,0-1.34,0-2h4.51c0-2.23-.22-4.48-.28-6.76s-.11-4.51-.16-6.76h3.78m-27.18,7a23.22,23.22,0,0,0,0-2.89h-3.34a11.13,11.13,0,0,1,0-2h3.34a14.3,14.3,0,0,1,0-2.07h1.84c0-1.14-.06-2.32-.06-3.45h-9.52c0,1.73,0,3.47.06,5.2s0,3.49,0,5.21h-3.84c-.06-1.72-.09-3.47-.06-5.21s0-3.47-.05-5.2h-7.47c0,1.33,0,2.65,0,4s-.05,2.65-.05,4h5v2h-5c0,2.41.09,4.79.06,7.18s-.06,4.77-.11,7.16h7.74c-.06-1.75-.06-3.47-.06-5.2V47.42h7.74c0,1.95,0,3.89.06,5.83h6.52c0,.67,0,1.35,0,2H237.6c0,.86.06,1.7.06,2.57h7.74c.06-2.31,0-4.63-.05-6.94s-.06-4.65-.06-7Zm-50.52,6.68a31.24,31.24,0,0,0-.16,3.61c0,1.2-.23,2.42-.23,3.61h23.29c0-1.15.08-2.33.11-3.47s0-2.33,0-3.51h-7.69c0,1.2-.06,2.35-.17,3.53h-7.68c0-1.25,0-2.53,0-3.77Zm.45-17.09c0,2.51-.11,5-.22,7.54s-.17,5-.28,7.54h7.68c0-1.94.2-3.87.23-5.81s.11-3.87.11-5.82h7.68c-.11,1.15-.16,2.31-.16,3.47H214c0-.82,0-1.64.17-2.46h-4.52a11.36,11.36,0,0,1,.12-2h4.4V33.54ZM175.17,44h-7.69c0-1.14,0-2.32.11-3.47s.17-2.32.28-3.49h7.63c-.05,1.17-.22,2.33-.28,3.49S175.17,42.81,175.17,44Zm-16.6-10.41c-.06,1.13-.17,2.31-.17,3.45h1.84c-.17,2.51-.39,5-.56,7.54s-.33,5-.5,7.5h5.4c-.11.92-.16,1.85-.22,2.77h-5.29a28.49,28.49,0,0,0-.17,3.05h7.74c.06-1.75.12-3.47.23-5.2s.28-3.47.39-5.23H175c-.17,1.76-.2,3.47-.28,5.23s-.17,3.45-.33,5.2h7.79c.12-2.65.17-5.3.28-8s.28-5.3.34-8h-6.19a11.83,11.83,0,0,1,.17-2.77H183c.06-1.85.06-3.73.17-5.58ZM317.7,41.81c.17,2.1.39,4.21.56,6.29s.33,4.19.44,6.3h7.8c-.11-1.18-.14-2.33-.28-3.49s-.28-2.33-.33-3.49h-1.95c-.12-1.18-.17-2.33-.28-3.51h9.58c.05,1.08.19,2.12.28,3.17s.22,2.12.33,3.15h-5.57c.11.66.17,1.36.34,2H334a12.91,12.91,0,0,1,.28,2.15h1.95c.11,1.14.28,2.3.33,3.45H311.29c-.22-2.69-.39-5.34-.61-8s-.45-5.34-.56-8Zm14.48-8.27h1.95c.11,1.13.17,2.31.28,3.45h-1.9c.17,1.15.28,2.31.34,3.47h-7.58c-.11-1.18-.28-2.34-.33-3.51h-7.63c.05.95.11,1.89.11,2.87h-7.58a16.6,16.6,0,0,0-.16-3.15c-.14-1-.17-2.1-.28-3.13ZM287.12,52.33q.13,2.78.33,5.52h-7.79c-.08-1.83-.19-3.68-.29-5.52Zm15.43,0,.05,1.07c.12,1.48.23,3,.34,4.45H295.2c-.07-1.85-.18-3.69-.3-5.52ZM286.16,33.54l7.77,4.17c-.12-1.27,0-2.83,0-4.17h7.28c.11,1.11.28,2.27.34,3.41s.11,2.27.16,3.41l.16,2-.1,0c.28,1.49.19,3,.33,4.49.12,1.22.27,2.44.35,3.66h-7.67c-.18-2.56-.38-5.13-.55-7.72l-7.83-4.21c.31,4,.45,7.94.64,11.93h-7.75l0-.43c-.08-1.79-.13-3.57-.21-5.35h5V42.49h-5.14v-.12l-.16-2a31.72,31.72,0,0,0-.12-3.37h-1.83c-.06-1.14-.17-2.32-.17-3.45ZM150.16,37c.05-1.14.17-2.32.22-3.45h-9.52c-.12,1.73-.17,3.49-.34,5.2s-.33,3.49-.44,5.21h-7.69c.17-1.72.25-3.47.45-5.21s.33-3.47.5-5.2h-9.53c-.16,1.13-.16,2.31-.33,3.45h2c-.11.73-.17,1.49-.28,2.21h4.68c-.06,1-.11,2.1-.22,3.13h-4.79c-.12,2-.34,4-.56,6s-.39,4-.61,6h-1.9a34,34,0,0,1-.39,3.45h9.81c.11-1.75.27-3.47.44-5.2s.28-3.47.45-5.23h7.68a7.81,7.81,0,0,1-.05,1.08h5.12c-.17,1-.17,2.09-.33,3.13h-5.13c0,1-.11,2-.16,3.11s-.23,2.08-.23,3.11h9.64c.05-1.15.17-2.31.22-3.45h-1.95c.22-2.09.34-4.15.5-6.22s.34-4.13.45-6.21h-6.57c0-.55.11-1.13.11-1.71h6.57a30.43,30.43,0,0,0,.33-3.27Z"/><path class="cls-3" d="M277.13,41.15h5.13v2.27h-5l-.12-2.27"/><path class="cls-3" d="M297.23,50.54h7.66c0,.28,0,.55.05.83l.05,1h-7.64l-.12-1.79m-15.5,0h7.75l.09,1.79h-7.75Z"/><path class="cls-3" d="M331.4,50.23h5.51c.12.66.12,1.36.23,2h-5.52c-.11-.66-.16-1.36-.22-2"/><path class="cls-3" d="M307.06,39.82h7.57c.06.66.17,1.32.23,2h-7.58c0-.67-.16-1.33-.22-2"/><path class="cls-3" d="M254,38.8h4.17c0,.68,0,1.34.06,2h-4.12c0-.68-.06-1.34-.11-2"/><path class="cls-3" d="M264.28,50.51h4.46c-.06.68,0,1.34,0,2h-4.46c0-.68,0-1.34,0-2"/><path class="cls-3" d="M242.62,39.06h3.45v2h-3.4c0-.66,0-1.34,0-2"/><path class="cls-3" d="M241.11,53.25h6.52a12.5,12.5,0,0,1,.11,2h-6.63v-2"/><path class="cls-3" d="M218.89,41.5h5v2h-5v-2"/><path class="cls-3" d="M212.15,36h4.57a4.87,4.87,0,0,0-.06,2h-4.57c.06-.67.06-1.33.06-2"/><path class="cls-3" d="M195.16,48.62h7.69a11.24,11.24,0,0,0,0,2h-7.63c-.06-.68-.06-1.33-.06-2"/><path class="cls-3" d="M179.85,39.12h6.23c0,.94-.11,1.86-.11,2.77h-6.35c.06-.91.23-1.83.23-2.77"/><path class="cls-3" d="M157.06,52h5.3c-.12.92-.06,1.85-.17,2.77h-5.35c.06-.92.17-1.85.22-2.77"/><path class="cls-3" d="M150.38,42a9.26,9.26,0,0,1,.17-1.71h-6.69c0,.58-.05,1.16-.05,1.71h6.57"/><path class="cls-3" d="M137.51,49.53c0,1.06-.16,2.1-.16,3.12h5.07c0-1,.11-2.06.16-3.12h-5.07"/><path class="cls-3" d="M122,39.2c-.11,1-.22,2.1-.33,3.13h4.73c.06-1,.17-2.09.28-3.13H122"/><path class="cls-4" d="M240.34,43.51h3.23c0,.66,0,1.32.06,2h-3.34c.05-.65.05-1.31.05-2"/><path class="cls-4" d="M193.89,52.91h7.47c-.06.63,0,1.29,0,2h-7.52c0-.66,0-1.32,0-2"/><path class="cls-4" d="M122.49,43.67a28.74,28.74,0,0,0-.34,3h4.57c.17-1,.22-2,.33-3h-4.56"/><path class="cls-5" d="M266.52,37c0-1.14-.11-2.32-.11-3.45h-15.2c0,1.13.11,2.31,0,3.45h3.9c-.06.61,0,1.21,0,1.81h4.12c.06.68.06,1.34.17,2h-4.23c.05,2.27,0,4.51.11,6.78s.11,4.53.16,6.8h-3.78c0,1.14,0,2.3,0,3.45H267.3c-.11-1.15-.11-2.31-.16-3.45h-3.79c-.06-.64-.11-1.25-.11-1.87h-4.52c0-.68-.05-1.34-.05-2h4.51c0-2.23-.22-4.48-.28-6.76s-.11-4.51-.16-6.76h3.78m-27.18,7a23.22,23.22,0,0,0,0-2.89H236a11.13,11.13,0,0,1,0-2h3.34a14.3,14.3,0,0,1,0-2.07h1.84c0-1.14-.06-2.32-.06-3.45H231.6c0,1.73,0,3.47.06,5.2s0,3.49.05,5.21h-3.84c-.06-1.72-.09-3.47-.06-5.21s0-3.47-.05-5.2h-7.47c0,1.33,0,2.65,0,4s0,2.65,0,4h4.95v2h-5c0,2.41.09,4.79.06,7.18s-.06,4.77-.11,7.16h7.74c-.06-1.75-.06-3.47-.06-5.2V47.42h7.74c0,1.95,0,3.89.06,5.83h6.52c0,.67,0,1.35.05,2h-6.63c0,.86.06,1.7.06,2.57h7.74c.06-2.31,0-4.63,0-6.94s-.06-4.65-.06-7Zm-50.52,6.68a31.24,31.24,0,0,0-.16,3.61c0,1.2-.23,2.42-.23,3.61h23.29c.05-1.15.08-2.33.11-3.47s0-2.33,0-3.51h-7.69c0,1.2-.06,2.35-.17,3.53h-7.68c.05-1.25.05-2.53.05-3.77Zm.45-17.09c0,2.51-.11,5-.22,7.54s-.17,5-.28,7.54h7.68c0-1.94.2-3.87.23-5.81s.11-3.87.11-5.82h7.68c-.11,1.15-.16,2.31-.16,3.47h7.63c.05-.82.05-1.64.17-2.46h-4.52a11.36,11.36,0,0,1,.12-2h4.4V33.54ZM173.12,44h-7.69c0-1.14,0-2.32.11-3.47s.17-2.32.28-3.49h7.63c0,1.17-.22,2.33-.28,3.49S173.12,42.81,173.12,44Zm-16.6-10.41c-.06,1.13-.17,2.31-.17,3.45h1.84c-.17,2.51-.39,5-.56,7.54s-.33,5-.5,7.5h5.4c-.11.92-.16,1.85-.22,2.77H157a28.49,28.49,0,0,0-.17,3.05h7.74c.06-1.75.12-3.47.23-5.2s.28-3.47.39-5.23H173c-.17,1.76-.2,3.47-.28,5.23s-.17,3.45-.33,5.2h7.79c.12-2.65.17-5.3.28-8s.28-5.3.34-8h-6.19a11.83,11.83,0,0,1,.17-2.77H181c.06-1.85.06-3.73.17-5.58Zm159.13,8.27c.17,2.1.39,4.21.56,6.29s.33,4.19.44,6.3h7.8c-.11-1.18-.14-2.33-.28-3.49s-.28-2.33-.33-3.49h-1.95c-.12-1.18-.17-2.33-.28-3.51h9.58c.05,1.08.19,2.12.28,3.17s.22,2.12.33,3.15h-5.57c.11.66.17,1.36.34,2h5.34a12.91,12.91,0,0,1,.28,2.15h1.95c.11,1.14.28,2.3.33,3.45H309.24c-.22-2.69-.39-5.34-.61-8s-.45-5.34-.56-8Zm14.48-8.27h1.95c.11,1.13.17,2.31.28,3.45h-1.9c.17,1.15.28,2.31.34,3.47h-7.58c-.11-1.18-.28-2.34-.33-3.51h-7.63c.05.95.11,1.89.11,2.87h-7.58a16.6,16.6,0,0,0-.16-3.15c-.14-1-.17-2.1-.28-3.13ZM285.07,52.33q.14,2.78.33,5.52h-7.79c-.08-1.83-.19-3.68-.29-5.52Zm15.43,0,.05,1.07c.12,1.48.23,3,.34,4.45h-7.74c-.07-1.85-.18-3.69-.3-5.52ZM284.11,33.54l7.77,4.17c-.12-1.27,0-2.83,0-4.17h7.28c.11,1.11.28,2.27.34,3.41s.11,2.27.16,3.41l.16,2-.1,0c.28,1.49.19,3,.33,4.49.12,1.22.27,2.44.35,3.66h-7.67c-.18-2.56-.38-5.13-.55-7.72l-7.83-4.21c.31,4,.45,7.94.64,11.93h-7.75l0-.43c-.08-1.79-.13-3.57-.21-5.35h5V42.49h-5.14v-.12l-.16-2A31.72,31.72,0,0,0,276.6,37h-1.83c-.06-1.14-.17-2.32-.17-3.45ZM148.11,37c0-1.14.17-2.32.22-3.45h-9.52c-.12,1.73-.17,3.49-.34,5.2s-.33,3.49-.44,5.21h-7.69c.17-1.72.25-3.47.45-5.21s.33-3.47.5-5.2h-9.53c-.16,1.13-.16,2.31-.33,3.45h1.95c-.11.73-.17,1.49-.28,2.21h4.68c-.06,1-.11,2.1-.22,3.13h-4.79c-.12,2-.34,4-.56,6s-.39,4-.61,6h-1.9a34,34,0,0,1-.39,3.45h9.81c.11-1.75.27-3.47.44-5.2s.28-3.47.45-5.23h7.68a7.81,7.81,0,0,1-.05,1.08h5.12c-.17,1-.17,2.09-.33,3.13H137.3c0,1-.11,2-.16,3.11s-.23,2.08-.23,3.11h9.64c0-1.15.17-2.31.22-3.45h-2c.22-2.09.34-4.15.5-6.22s.34-4.13.45-6.21H139.2c0-.55.11-1.13.11-1.71h6.57a30.43,30.43,0,0,0,.33-3.27Z"/><path class="cls-5" d="M275.08,41.15h5.13v2.27h-5l-.12-2.27"/><path class="cls-5" d="M295.18,50.54h7.66c0,.28,0,.55.05.83l.05,1H295.3l-.12-1.79m-15.5,0h7.75l.09,1.79h-7.75Z"/><path class="cls-5" d="M329.35,50.23h5.51c.12.66.12,1.36.23,2h-5.52c-.11-.66-.16-1.36-.22-2"/><path class="cls-5" d="M305,39.82h7.57c.06.66.17,1.32.23,2h-7.58c-.05-.67-.16-1.33-.22-2"/><path class="cls-5" d="M252,38.8h4.17c0,.68,0,1.34.06,2H252.1c0-.68-.06-1.34-.11-2"/><path class="cls-5" d="M262.23,50.51h4.46c-.06.68,0,1.34,0,2h-4.46c-.05-.68,0-1.34,0-2"/><path class="cls-5" d="M240.57,39.06H244v2h-3.4c0-.66,0-1.34-.05-2"/><path class="cls-5" d="M239.06,53.25h6.52a12.5,12.5,0,0,1,.11,2h-6.63v-2"/><path class="cls-5" d="M216.84,41.5h5v2h-5v-2"/><path class="cls-5" d="M210.1,36h4.57a4.87,4.87,0,0,0-.06,2H210c.06-.67.06-1.33.06-2"/><path class="cls-5" d="M193.11,48.62h7.69a11.24,11.24,0,0,0,0,2h-7.63c-.06-.68-.06-1.33-.06-2"/><path class="cls-5" d="M177.8,39.12H184c0,.94-.11,1.86-.11,2.77h-6.35c.06-.91.23-1.83.23-2.77"/><path class="cls-5" d="M155,52h5.3c-.12.92-.06,1.85-.17,2.77h-5.35c.06-.92.17-1.85.22-2.77"/><path class="cls-5" d="M148.33,42a9.26,9.26,0,0,1,.17-1.71h-6.69c0,.58-.05,1.16-.05,1.71h6.57"/><path class="cls-5" d="M135.46,49.53c0,1.06-.16,2.1-.16,3.12h5.07c0-1,.11-2.06.16-3.12h-5.07"/><path class="cls-5" d="M120,39.2c-.11,1-.22,2.1-.33,3.13h4.73c.06-1,.17-2.09.28-3.13H120"/><g class="cls-6"><rect class="cls-7" x="241.63" y="43.51" width="3.34" height="1.98"/></g><g class="cls-8"><rect class="cls-9" x="123.49" y="43.67" width="4.9" height="3.05"/></g><path class="cls-10" d="M267.86,37c0-1.14-.11-2.32-.11-3.45H252.54c.06,1.13.11,2.31.06,3.45h3.9c-.06.61,0,1.21,0,1.81h4.12a19.65,19.65,0,0,0,.17,2h-4.24c.06,2.27,0,4.51.11,6.78s.12,4.53.17,6.8H253c0,1.14.06,2.3.06,3.45h15.54c-.11-1.15-.11-2.31-.17-3.45h-3.79c-.05-.64-.11-1.25-.11-1.87h-4.51c0-.68-.05-1.34-.05-2h4.51c0-2.23-.22-4.48-.28-6.76s-.11-4.51-.17-6.76h3.79m-27.18,7a27.86,27.86,0,0,0,0-2.89h-3.34a11.13,11.13,0,0,1,0-2h3.34a11.92,11.92,0,0,1,0-2.07h1.84c0-1.14-.06-2.32-.06-3.45h-9.52c0,1.73,0,3.47.05,5.2s0,3.49.06,5.21h-3.84c-.06-1.72-.09-3.47-.06-5.21s0-3.47-.06-5.2h-7.46c0,1.33,0,2.65,0,4s-.06,2.65-.06,4h5v2h-5c0,2.41.08,4.79,0,7.18s0,4.77-.11,7.16h7.75c-.06-1.75-.06-3.47-.06-5.2V47.42h7.74c0,1.95,0,3.89.06,5.83h6.51c0,.67,0,1.35.06,2h-6.63c0,.86.06,1.7.06,2.57h7.74c.06-2.31,0-4.63-.06-6.94s0-4.65,0-7Zm-50.52,6.68a31.26,31.26,0,0,0-.17,3.61c0,1.2-.22,2.42-.22,3.61h23.28c.06-1.15.09-2.33.11-3.47s0-2.33,0-3.51h-7.68c0,1.2-.06,2.35-.17,3.53h-7.69c.06-1.25.06-2.53.06-3.77Zm.45-17.09c0,2.51-.12,5-.23,7.54s-.16,5-.27,7.54h7.68c0-1.94.2-3.87.22-5.81s.12-3.87.12-5.82h7.68c-.11,1.15-.16,2.31-.16,3.47h7.63c.05-.82.05-1.64.16-2.46h-4.51a12.38,12.38,0,0,1,.11-2h4.4V33.54ZM174.45,44h-7.68c0-1.14,0-2.32.11-3.47s.17-2.32.28-3.49h7.63c-.06,1.17-.22,2.33-.28,3.49S174.45,42.81,174.45,44ZM157.86,33.54c-.06,1.13-.17,2.31-.17,3.45h1.84c-.17,2.51-.39,5-.56,7.54s-.33,5-.5,7.5h5.4c-.11.92-.17,1.85-.22,2.77h-5.29a26.1,26.1,0,0,0-.17,3.05h7.74c.06-1.75.11-3.47.22-5.2s.28-3.47.39-5.23h7.75c-.17,1.76-.2,3.47-.28,5.23s-.17,3.45-.34,5.2h7.8c.11-2.65.17-5.3.28-8s.28-5.3.33-8H175.9a11.83,11.83,0,0,1,.17-2.77h6.24c.05-1.85.05-3.73.16-5.58ZM317,41.81c.16,2.1.39,4.21.55,6.29s.34,4.19.45,6.3h7.8c-.12-1.18-.14-2.33-.28-3.49s-.28-2.33-.34-3.49h-1.95c-.11-1.18-.16-2.33-.27-3.51h9.58c.05,1.08.19,2.12.27,3.17s.23,2.12.34,3.15h-5.57c.11.66.17,1.36.33,2h5.35a14.05,14.05,0,0,1,.28,2.15h2c.11,1.14.28,2.3.33,3.45H310.58c-.22-2.69-.39-5.34-.61-8s-.45-5.34-.56-8Zm14.48-8.27h1.95c.11,1.13.16,2.31.28,3.45h-1.9c.17,1.15.28,2.31.34,3.47h-7.58c-.11-1.18-.28-2.34-.33-3.51H316.6c0,.95.11,1.89.11,2.87h-7.58a16.6,16.6,0,0,0-.17-3.15c-.13-1-.16-2.1-.27-3.13ZM286.41,52.33q.13,2.78.33,5.52h-7.8c-.08-1.83-.18-3.68-.28-5.52Zm15.42,0,.06,1.07c.11,1.48.22,3,.34,4.45h-7.75c-.07-1.85-.17-3.69-.29-5.52ZM285.45,33.54l7.77,4.17c-.13-1.27,0-2.83,0-4.17h7.28c.11,1.11.28,2.27.33,3.41s.11,2.27.17,3.41l.16,2-.1,0c.27,1.49.19,3,.33,4.49.11,1.22.26,2.44.35,3.66h-7.67c-.18-2.56-.38-5.13-.56-7.72l-7.82-4.21c.3,4,.45,7.94.63,11.93h-7.75l0-.43c-.07-1.79-.12-3.57-.2-5.35h5V42.49h-5.13v-.12l-.17-2c0-1.12,0-2.24-.11-3.37H276.1c-.05-1.14-.16-2.32-.16-3.45ZM149.45,37c.05-1.14.16-2.32.22-3.45h-9.53c-.11,1.73-.16,3.49-.33,5.2s-.33,3.49-.45,5.21h-7.68c.17-1.72.25-3.47.44-5.21s.34-3.47.5-5.2H123.1c-.17,1.13-.17,2.31-.33,3.45h2c-.12.73-.17,1.49-.28,2.21h4.68c-.06,1-.12,2.1-.23,3.13H124.1c-.11,2-.33,4-.55,6s-.39,4-.62,6H121c-.06,1.14-.22,2.3-.39,3.45h9.8c.11-1.75.28-3.47.45-5.2s.28-3.47.44-5.23H139A6.52,6.52,0,0,1,139,48.5h5.13c-.17,1-.17,2.09-.34,3.13h-5.12c0,1-.11,2-.17,3.11s-.22,2.08-.22,3.11h9.64c.05-1.15.16-2.31.22-3.45h-2c.22-2.09.33-4.15.5-6.22s.33-4.13.45-6.21h-6.58c0-.55.12-1.13.12-1.71h6.57c.16-1.1.28-2.18.33-3.27Z"/><path class="cls-10" d="M276.41,41.15h5.14v2.27h-5c0-.76-.07-1.51-.12-2.27"/><path class="cls-10" d="M296.52,50.54h7.66c0,.28,0,.55,0,.83l.06,1h-7.64l-.12-1.79m-15.5,0h7.75c0,.6.05,1.19.08,1.79h-7.74C281.07,51.73,281,51.14,281,50.54Z"/><path class="cls-10" d="M330.69,50.23h5.51c.11.66.11,1.36.22,2h-5.51c-.11-.66-.17-1.36-.22-2"/><path class="cls-10" d="M306.35,39.82h7.57c.06.66.17,1.32.22,2h-7.57c-.06-.67-.17-1.33-.22-2"/><path class="cls-10" d="M253.32,38.8h4.18c0,.68,0,1.34.06,2h-4.13c0-.68-.05-1.34-.11-2"/><path class="cls-10" d="M263.57,50.51H268c-.06.68,0,1.34,0,2h-4.46c-.05-.68,0-1.34,0-2"/><path class="cls-10" d="M241.9,39.06h3.46v2H242c0-.66,0-1.34-.06-2"/><path class="cls-10" d="M240.4,53.25h6.52a12.5,12.5,0,0,1,.11,2H240.4v-2"/><path class="cls-10" d="M218.18,41.5h4.95v2h-4.95v-2"/><path class="cls-10" d="M211.44,36H216a5,5,0,0,0-.05,2h-4.57c.06-.67.06-1.33.06-2"/><path class="cls-10" d="M194.45,48.62h7.69a11.24,11.24,0,0,0,0,2h-7.63c-.06-.68-.06-1.33-.06-2"/><path class="cls-10" d="M179.13,39.12h6.24c0,.94-.11,1.86-.11,2.77h-6.35c.06-.91.22-1.83.22-2.77"/><path class="cls-10" d="M156.35,52h5.29c-.11.92,0,1.85-.16,2.77h-5.35c.05-.92.17-1.85.22-2.77"/><path class="cls-10" d="M149.67,42a8.47,8.47,0,0,1,.17-1.71h-6.69c0,.58-.05,1.16-.05,1.71h6.57"/><path class="cls-10" d="M136.8,49.53c0,1.06-.16,2.1-.16,3.12h5.06c0-1,.11-2.06.17-3.12H136.8"/><path class="cls-10" d="M121.32,39.2c-.11,1-.22,2.1-.34,3.13h4.74c0-1,.17-2.09.28-3.13h-4.68"/><path class="cls-11" d="M24.18,104.06c.18.82.37,1.64.54,2.47v0c-.34.79-.69,1.59-1,2.36s-.73,1.6-1.14,2.41l0,0-.57.09c-4.32.69-8.76,1.39-13.12,2.16l-.11,0v-.11c.21-1.57.41-3.12.61-4.66.23-1.81.47-3.61.71-5.38v-.06h.06c2.19-.3,4.44-.59,6.7-.88l6.77-.83h.08v.07c.16.75.33,1.51.51,2.27m.37,2.48c-.16-.83-.35-1.63-.54-2.44s-.33-1.46-.48-2.2l-6.7.83c-2.23.28-4.45.57-6.63.87-.25,1.77-.47,3.54-.7,5.31-.2,1.52-.39,3-.6,4.55,4.31-.76,8.72-1.46,13-2.14l.49-.08c.4-.81.77-1.59,1.12-2.37S24.22,107.3,24.55,106.54Zm2.26-23.28c.19.74.38,1.48.58,2.22v.06c-.36.76-.71,1.52-1.06,2.27-.44,1-.88,1.92-1.35,2.88l0,0-.78.06c-4.22.35-8.4.69-12.55,1.07h-.11l.13-1c.42-3.07.84-6.17,1.29-9.23v-.07H13c4.31-.22,8.66-.42,13-.62h.2l0,.07C26.44,81.76,26.62,82.5,26.81,83.26Zm.41,2.23q-.3-1.11-.57-2.19c-.18-.7-.36-1.43-.54-2.16h-.06c-4.33.2-8.66.39-12.95.61-.46,3-.87,6.12-1.28,9.17l-.11.78c4.22-.39,8.32-.73,12.46-1.07l.68,0c.45-.94.89-1.89,1.33-2.84C26.53,87,26.87,86.23,27.22,85.49Zm35.62,2.57c-.17,1.54-.34,3.09-.56,4.63v.07H62.2l-7,.53-7,.56h-.1v-.1c.1-1.08.25-2.16.39-3.23s.31-2.41.42-3.61.22-2.26.34-3.39.25-2.27.39-3.39v-.07h.07l6.94-.26,7-.24h.1l-.24,2.35c-.14,1.42-.29,2.84-.45,4.23C63,86.81,62.91,87.43,62.84,88.06Zm-.72,4.54c.22-1.53.39-3,.55-4.56.07-.64.14-1.28.21-1.9.17-1.41.31-2.82.45-4.23l.22-2.16L56.67,80l-6.87.25c-.14,1.11-.27,2.21-.38,3.32s-.24,2.27-.34,3.39-.27,2.41-.43,3.62c-.14,1-.27,2.07-.38,3.12l6.89-.55Q58.64,92.86,62.12,92.6Zm-2.41,24.59,6.94-1c.13-1.47.28-3,.42-4.56l.44-4.61c.16-1.68.36-3.36.56-5,.17-1.4.34-2.81.48-4.2s.3-3,.45-4.48.3-3.15.46-4.71c.13-1.22.27-2.43.41-3.65.21-1.83.42-3.67.59-5.5q-1-2.61-2-5.21c-.67-1.72-1.35-3.47-2.06-5.25H49.32c-1.46,2.78-3,5.58-4.64,8.4L43,80.45c-.22,1.66-.44,3.33-.65,5s-.41,3.34-.62,5-.38,3.39-.57,5.08-.36,3.34-.56,5-.4,3.36-.58,5-.37,3.38-.55,5.06-.38,3.33-.58,5-.41,3.38-.59,5.06l3.44-.61c1.17-.21,2.37-.41,3.55-.6.12-1.21.24-2.41.37-3.6s.26-2.45.4-3.66v-.09c.27-2.39.54-4.82.9-7.2v-.06H47l7-.81,7.07-.78h.1L61,105.45c-.16,1.61-.33,3.22-.47,4.85-.1,1.17-.23,2.33-.37,3.5S59.86,116.05,59.71,117.19Zm7-.84c-2.39.33-4.75.68-7.12,1l-.11,0,0-.11c.16-1.17.31-2.33.45-3.5s.26-2.32.36-3.49c.14-1.58.31-3.22.47-4.85l.2-2-7,.77-7,.8c-.35,2.37-.62,4.77-.88,7.13v.09c-.14,1.22-.28,2.44-.41,3.65s-.25,2.45-.37,3.67v.07h-.07l-3.61.6-3.55.63-.11,0v-.11c.19-1.73.39-3.45.6-5.17s.4-3.34.58-5,.37-3.39.55-5.06.38-3.38.58-5,.39-3.34.57-5,.36-3.4.57-5.08.41-3.34.62-5,.42-3.34.65-5v0c.56-1,1.15-2,1.73-3.07,1.61-2.84,3.2-5.65,4.66-8.44l0,0h17.3l0,0c.69,1.76,1.38,3.52,2.07,5.3s1.36,3.51,2,5.23v0c-.17,1.85-.38,3.69-.59,5.52-.15,1.22-.29,2.44-.41,3.65-.17,1.57-.32,3.14-.47,4.71s-.29,3-.44,4.48-.31,2.8-.48,4.2c-.2,1.68-.4,3.36-.56,5l-.44,4.61q-.21,2.23-.42,4.62v.07Zm33.71-40.41c1.42-2.33,2.83-4.64,4.15-7H74.43c.82,1.92,1.54,3.81,2.26,5.69.57,1.52,1.15,3,1.76,4.51L85.24,79v.09c-.12,1.36-.27,2.7-.42,4-.17,1.59-.35,3.19-.48,4.8-.08.85-.15,1.71-.21,2.56-.17,2.09-.34,4.19-.57,6.3-.15,1.49-.31,3-.47,4.45s-.3,3-.43,4.45l-.81,8.8,3.44-.43,3.51-.41c.11-1.42.25-2.87.38-4.32s.27-2.87.39-4.34c.15-1.92.34-3.86.53-5.8.1-1,.19-2,.28-2.92.13-1.38.26-2.84.38-4.3s.25-2.89.39-4.4l0-.22c.27-2.81.53-5.61.76-8.46v-.08l6.88-.17Zm4.37-7c-1.34,2.35-2.78,4.7-4.23,7.08-.55.89-1.1,1.8-1.67,2.74l0,0L92.08,79c-.22,2.79-.49,5.59-.75,8.4l0,.21c-.13,1.42-.26,2.91-.39,4.4s-.24,2.82-.38,4.3c-.09,1-.19,2-.28,2.93-.2,1.92-.39,3.85-.54,5.79-.11,1.43-.24,2.89-.38,4.34s-.27,2.91-.39,4.4v.07h-.07c-1.2.13-2.39.27-3.58.42l-3.54.44h-.11c.28-3,.55-6,.83-9,.14-1.49.28-3,.44-4.45s.31-3,.47-4.44c.22-2.1.39-4.2.56-6.3l.21-2.57c.13-1.59.31-3.19.49-4.8.14-1.32.29-2.64.41-4l-6.73.19,0,0c-.62-1.53-1.2-3-1.78-4.57-.73-1.92-1.47-3.85-2.3-5.8l0-.11h30.71Zm31.74,3.62c.73-1.19,1.46-2.37,2.19-3.58H108.64c.59,1.31,1.16,2.61,1.74,3.91.81,1.83,1.61,3.66,2.45,5.46l3.36-.07,3.39-.06h.09v.09c-.09,1.37-.19,2.73-.3,4.09L119,86.48c-.12,1.36-.23,2.73-.34,4.08s-.21,2.73-.3,4.1-.19,2.47-.29,3.7c-.13,1.49-.26,3-.34,4.46-.08,1.27-.18,2.52-.28,3.78-.12,1.45-.23,2.89-.31,4.33l6.91-.58c.06-.87.12-1.75.19-2.62.13-1.79.26-3.59.35-5.37.08-1.53.22-3.08.35-4.62.1-1.14.21-2.29.29-3.45.09-1.34.17-2.68.24-4s.16-2.7.26-4v-.11c.18-2.65.36-5.31.58-8V78.1l2.53,0,4.35-.07C134.34,76.16,135.45,74.36,136.56,72.57ZM139,69c-.74,1.22-1.5,2.46-2.27,3.7-1.13,1.83-2.25,3.66-3.35,5.47l0,0h0l-4.4.06-2.37,0c-.23,2.64-.4,5.26-.58,7.88v.11c-.09,1.35-.17,2.69-.25,4s-.16,2.68-.25,4c-.07,1.14-.18,2.3-.28,3.46-.14,1.53-.27,3.07-.35,4.61-.09,1.8-.22,3.58-.35,5.37-.07.9-.14,1.81-.2,2.7v.07l-7.24.6V111c.07-1.48.19-3,.31-4.43.1-1.26.21-2.53.28-3.78.09-1.49.21-3,.34-4.46.11-1.24.21-2.48.29-3.71s.2-2.73.31-4.09.22-2.72.33-4.08.23-2.72.33-4.08.21-2.66.3-4l-3.3.06-3.47.07,0,0c-.85-1.83-1.66-3.66-2.47-5.51-.59-1.33-1.18-2.67-1.8-4l-.05-.12h30.67Zm24.62,38.83c1.73-2.85,3.47-5.71,5.28-8.53-3.28.11-6.54.22-9.8.35s-6.6.25-9.91.4h-.09v-.1c.07-1.3.15-2.6.23-3.9s.16-2.58.22-3.87c.14-2.56.3-5.13.45-7.68V84.4c.12-1.92.2-3.85.28-5.77l.08-2c.08-1.71.17-3.42.27-5.14l.13-2.52h-6.58l-.68,10.06c-.13,1.86-.22,3.73-.31,5.59-.07,1.49-.15,3-.24,4.46-.07,1.27-.16,2.52-.25,3.77-.14,2.11-.28,4.21-.38,6.31-.09,1.93-.21,3.86-.33,5.78-.09,1.41-.18,2.82-.26,4.23l10.79-.62q5.44-.3,10.94-.55Zm5.5-8.57c-1.85,2.87-3.61,5.77-5.36,8.66l-.19.31h0c-3.67.16-7.33.35-11,.55l-10.88.62h-.09v-.1c.08-1.44.17-2.88.26-4.32.12-1.93.24-3.85.33-5.78.1-2.1.24-4.2.39-6.31.08-1.26.17-2.52.25-3.77.09-1.49.16-3,.23-4.46.09-1.87.18-3.74.31-5.6L144,69s0-.14.13-.14h6.8l-.15,2.69c-.09,1.72-.19,3.43-.26,5.13l-.09,2c-.08,1.92-.16,3.85-.27,5.77v.06c-.16,2.56-.31,5.13-.45,7.68-.07,1.3-.15,2.58-.22,3.87s-.16,2.55-.23,3.81c3.28-.14,6.55-.28,9.83-.4s6.61-.24,10-.35h.16Zm30.07-23.8c1.3-2.13,2.6-4.27,3.83-6.42h-26.9c0,2.05-.12,4.09-.21,6.12q-.09,1.77-.15,3.51c-.06,1.61-.14,3.22-.23,4.83s-.17,3.25-.22,4.87c-.05,1.3-.1,2.6-.16,3.89-.07,2-.15,3.89-.21,5.83,0,1.62-.09,3.24-.14,4.86s-.1,3.18-.17,4.77c3.64-.13,7.26-.25,10.88-.35s7.26-.2,10.89-.29l2.66-4.28c.89-1.42,1.77-2.8,2.64-4.17l-9.86.17c-3.32.06-6.64.14-9.9.22h-.09v-.09c0-.91.05-1.81.09-2.71,0-1.33.09-2.65.09-4v-.08h.09l9.52-.16,2.95,0c1.22-2,2.54-4,3.84-6l1-1.6-8.52.08-8.61.1h-.09v-.09c.07-1.13.14-2.27.2-3.4s.12-2.28.16-3.4v-.08h.08l7.61-.06,7.67,0ZM203.21,69c-1.25,2.18-2.58,4.37-3.91,6.55l-1.24,2-7.77,0-7.53,0c0,1.11-.1,2.22-.16,3.33s-.13,2.21-.2,3.31l8.52-.1,8.83-.08L198.54,86c-1.31,2-2.62,4-3.86,6.09l0,0-3,0-9.44.16c0,1.29,0,2.59-.1,3.9,0,.87-.06,1.74-.08,2.62l9.82-.22,10-.17H202l-.08.13-2.72,4.3c-.89,1.43-1.79,2.87-2.68,4.32l0,0h-.05c-3.65.08-7.29.18-10.93.28l-11,.36h-.09v-.09c.07-1.62.12-3.24.17-4.86l.15-4.86c.05-1.94.13-3.88.21-5.82l.15-3.89c.06-1.64.14-3.26.23-4.88s.17-3.22.22-4.82c0-1.17.1-2.34.15-3.51.09-2.07.19-4.14.22-6.2v-.08h27.35Zm30,1.51.87-1.47H212.35l-2.57,4.31q-1.29,2.15-2.62,4.31c0,.59,0,1.16,0,1.74,0,1.16-.08,2.31-.08,3.47s0,2.32-.08,3.48L206.89,88q0,1.56,0,3.12c0,.7,0,1.39,0,2.09h0c0,1.71,0,3.43,0,5.17.81,1.4,1.65,2.8,2.5,4.2s1.7,2.79,2.55,4.17l13.05-.08,3.45,0,.64-1c1.5-2.44,3-4.89,4.54-7.35-.09-2.37-.09-4.74-.09-7.11,0-1.18,0-2.37.05-3.56s0-2.31,0-3.48c-4.39,0-8.7,0-13,0h-3.12c1.29,2.27,2.69,4.55,4.1,6.84l.43.7h4.75v6.72l-6.56,0-6.49,0V93.13c0-1,0-2.1,0-3.16,0-.7,0-1.4,0-2.09,0-1.17,0-2.33,0-3.49V82.64c0-.86,0-1.74,0-2.62s.05-1.74.1-2.61v-.08l15.36,0C230.53,75,231.88,72.76,233.24,70.46ZM234.32,69l-.94,1.6q-2,3.44-4,6.88l0,0H214c0,.85-.08,1.69-.1,2.54s0,1.74,0,2.61v1.75c0,1.16,0,2.33,0,3.49,0,.7,0,1.4,0,2.09,0,1-.05,2.1-.05,3.16v5.16l12.71,0V91.87h-4.68l-.47-.78c-1.44-2.33-2.86-4.65-4.18-7L217.1,84h3.41c4.34,0,8.68,0,13.11,0h.08v.08c0,1.18,0,2.38,0,3.57s0,2.36,0,3.56c0,2.38,0,4.76.09,7.13v0c-1.54,2.45-3.05,4.91-4.56,7.37l-.68,1.11-3.55,0q-6.51,0-13.1.08h-.05l0,0c-.87-1.41-1.74-2.83-2.58-4.22s-1.69-2.81-2.5-4.22l0,0c0-1.71,0-3.45.05-5.19v0c0-.69,0-1.38,0-2.08,0-1,0-2.08,0-3.13,0-.58,0-1.16.05-1.73,0-1.16.08-2.31.08-3.48s0-2.31.08-3.47l.06-1.76v0q1.32-2.16,2.63-4.33l2.59-4.34,0,0H234.4Zm27.49,10c.41.83.82,1.66,1.19,2.51v.06c-.25.65-.51,1.28-.76,1.92s-.62,1.54-.92,2.33l0,0h-.06l-6.72-.06-6.7,0v-.08c0-.91,0-1.82,0-2.72,0-1.83-.08-3.65-.08-5.47v-.08l6.7,0,6.68,0,0,0C261.33,78,261.57,78.44,261.81,78.93Zm1,2.54c-.36-.83-.77-1.65-1.17-2.47l-.7-1.44-6.57,0-6.54,0c0,1.8.05,3.59.09,5.38,0,.87,0,1.75.05,2.63l6.53,0,6.67.06c.29-.76.59-1.52.89-2.27S262.59,82.09,262.83,81.47Zm2.48,25.71c1.84,0,3.7.09,5.46.15,0-1.82-.09-3.61-.17-5.44v0c-.09-1.8-.18-3.63-.18-5.44-.84-1.3-1.65-2.6-2.45-3.89-.58-.93-1.16-1.87-1.75-2.79l0,0,0,0c.64-1.49,1.28-3,1.9-4.44s1.25-3,1.85-4.42c-.48-1-1-1.92-1.42-2.89s-1-2-1.42-3c-.33-.71-.66-1.43-1-2.14-.58-1.24-1.15-2.48-1.7-3.74H240.87c0,1.58,0,3.13,0,4.68s.05,3.17.05,4.73,0,3.16,0,4.73.05,3.18.05,4.74c0,1.92,0,3.82,0,5.71,0,1.26,0,2.53,0,3.79,0,2.11.05,4.23.09,6.34l.05,3.05,3.41,0,3.41,0c0-2.07,0-4.13-.09-6.21v0c0-1.06,0-2.11,0-3.16s0-2.11-.05-3.17v-.09H248l6.67.07,6.71.09h.05l0,.05c.44.84,1,1.69,1.53,2.54.19.3.38.61.56.88v0c.07,1.57.13,3.15.18,4.73s.11,3,.18,4.57Zm5.55.32c-1.8-.06-3.68-.11-5.56-.15l-1.55,0v-.08q-.11-2.33-.18-4.65c-.06-1.57-.12-3.14-.19-4.72l-.54-.86c-.54-.84-1.08-1.68-1.51-2.51l-6.66-.09-6.59-.07c0,1,0,2.06,0,3.09s0,2.1,0,3.15v.06c.05,2.11.09,4.21.09,6.3V107l-3.57-.05-3.5,0h-.08l-.05-3.2c0-2.12-.07-4.23-.09-6.35,0-1.26,0-2.53,0-3.79,0-1.91-.05-3.82-.05-5.71,0-1.59,0-3.16,0-4.73s-.05-3.18-.05-4.74,0-3.16,0-4.73-.05-3.19-.05-4.76v-.08h23.82l0,0c.55,1.26,1.13,2.51,1.72,3.77.34.71.67,1.43,1,2.15.46,1,.93,2,1.42,3s.95,2,1.44,2.92l0,0,0,0q-.93,2.25-1.86,4.46t-1.89,4.39c.59.92,1.16,1.84,1.73,2.77q1.22,1.95,2.47,3.91v0c0,1.82.09,3.65.18,5.45v0c.09,1.85.14,3.66.18,5.51v.11Zm29.51-11.08c.06,1.09.11,2.18.19,3.28v.09h-.09l-7.91-.3-7.88-.28h-.07v-.08c0-.75-.09-1.52-.14-2.29-.07-1-.14-2.06-.18-3.09l-.06-2.16c0-1.08-.06-2.15-.12-3.22s-.08-2.16-.11-3.23c0-.72,0-1.43-.07-2.15,0-1.19-.11-2.39-.18-3.58l-.1-1.87,7.89.08,7.84.08v.08c0,.91.07,1.83.11,2.75s.07,1.82.11,2.73l.27,5.46c.06,1.1.14,2.21.22,3.32l.15,2.18Zm0,3.2c-.08-1.06-.13-2.13-.19-3.19,0-.74-.07-1.47-.12-2.2s-.1-1.44-.15-2.17c-.08-1.11-.16-2.22-.21-3.33l-.27-5.47c-.05-.9-.08-1.81-.12-2.72s-.06-1.78-.11-2.67l-7.68-.09-7.71-.07.09,1.69c.07,1.19.13,2.38.18,3.58,0,.72,0,1.43.07,2.15,0,1.08.06,2.15.11,3.23s.08,2.15.11,3.22c0,.72,0,1.44.07,2.16,0,1,.11,2.05.18,3.08.05.74.1,1.48.13,2.23l7.8.27Zm5.07,3.82,1.92-3.61c0-.9-.1-1.8-.16-2.71s-.11-1.81-.15-2.71V94.3c-.09-1.78-.18-3.58-.31-5.37q-.11-1.37-.18-2.73c-.05-.9-.09-1.81-.14-2.72,0-.6-.06-1.21-.08-1.83-.05-1.2-.1-2.4-.19-3.61l-.69-1.11c-1.65-2.66-3.29-5.28-5-7.94H281.66l-1.57,2.94c-1,1.93-2.06,3.85-3.11,5.79,0,1,0,1.89.09,2.83s.08,1.62.09,2.44l0,2.62.06,2.63c0,1,.08,2,.14,2.94.05.78.1,1.55.13,2.34l.11,2.63c0,.86.07,1.73.12,2.6l1.67,2.72c1.27,2.06,2.54,4.14,3.92,6.21l9.65.44,9.71.48C303.62,106.91,304.54,105.17,305.46,103.44Zm2.08-3.55c-.64,1.19-1.28,2.41-1.93,3.62-.92,1.73-1.84,3.46-2.79,5.21l0,0h-.06l-9.76-.49-9.69-.43h-.05l0,0c-1.39-2.08-2.67-4.17-3.94-6.25-.55-.91-1.11-1.81-1.69-2.74v0l-.12-2.63-.11-2.63c0-.77-.07-1.55-.12-2.33-.06-1-.12-2-.15-3s0-1.75-.05-2.63L277,83c0-.81-.05-1.62-.09-2.44s-.09-1.9-.09-2.85v0c1.05-1.93,2.08-3.86,3.12-5.81l1.62-3h19l0,0c1.75,2.67,3.4,5.31,5.06,8l.7,1.12,0,0c.09,1.22.14,2.44.19,3.65,0,.61.05,1.21.08,1.82,0,.91.09,1.81.14,2.72s.11,1.81.18,2.73c.13,1.78.22,3.58.31,5.37v.11c0,.9.1,1.8.16,2.71s.11,1.82.16,2.74Zm33.14,5.34,1.68-3.44-.14-1.6c-.18-2.2-.37-4.4-.5-6.6-.09-1.61-.24-3.21-.38-4.82-.11-1.15-.21-2.3-.3-3.42-.14-1.84-.29-3.69-.45-5.54l-.23-2.68c-.07-.89-.15-1.8-.23-2.71-.16-1.8-.32-3.61-.44-5.43H333c.13,1.34.25,2.67.35,4s.22,2.71.32,4.07.21,2.72.32,4.08.21,2.7.31,4.07.2,2.71.29,4.08.18,2.7.26,4.06c.1,1.67.26,3.35.43,5,.1,1.06.21,2.13.29,3.16v.09h-.1l-7.14-.45-7-.41h-.07v-.07c-.07-.92-.16-1.78-.24-2.64-.16-1.76-.33-3.54-.44-5.3-.06-1-.11-2-.16-3-.08-1.65-.16-3.31-.29-5L320,82.88c-.16-2-.32-4-.44-6-.05-.75-.09-1.51-.13-2.27-.1-1.87-.21-3.75-.37-5.63h-6.68c.06.85.13,1.71.19,2.57.13,1.72.26,3.44.35,5.16.07,1.29.14,2.58.21,3.89s.16,2.58.25,3.88.18,2.6.26,3.91.17,2.6.24,3.91.13,2.6.21,3.91.15,2.59.24,3.89l2.4,3.84q1.76,2.82,3.55,5.67,4.38.3,8.79.65l8.85.71C338.8,109.07,339.74,107.15,340.68,105.23Zm1.84-3.39c-.58,1.2-1.14,2.33-1.69,3.47-.95,1.94-1.9,3.88-2.8,5.8l0,0h-.06l-8.9-.72c-3-.24-5.91-.46-8.83-.66h0l0,0c-1.21-1.91-2.39-3.81-3.57-5.7l-2.41-3.86,0,0c-.09-1.3-.17-2.61-.24-3.91l-.21-3.91c-.07-1.3-.15-2.61-.23-3.91l-.27-3.91c-.09-1.29-.17-2.59-.24-3.89s-.15-2.59-.21-3.88c-.09-1.71-.22-3.43-.35-5.16-.07-.88-.14-1.76-.2-2.65v-.09h7V69c.16,1.88.26,3.76.37,5.64,0,.76.08,1.51.13,2.27.12,2,.28,4,.43,6l.16,1.92c.12,1.64.21,3.3.29,5,.05,1,.1,2,.16,3,.11,1.77.27,3.54.44,5.3.08.87.16,1.75.23,2.56l6.94.41,7.05.44c-.09-1-.19-2-.29-3-.16-1.68-.33-3.36-.43-5-.08-1.35-.16-2.71-.25-4.06s-.19-2.72-.29-4.08-.21-2.71-.32-4.06-.22-2.72-.32-4.09-.2-2.7-.31-4.06-.23-2.73-.37-4.07v-.09h7v.08c.12,1.83.28,3.67.44,5.5l.24,2.71.23,2.68c.15,1.84.31,3.68.45,5.53.09,1.16.19,2.3.29,3.43.15,1.61.3,3.23.39,4.82.13,2.19.31,4.4.5,6.6l.13,1.62ZM376.61,115l2.62.34q-.27-2.88-.59-5.78c-.2-1.93-.4-3.87-.58-5.81l-.36-3.93Q377.34,96,377,92.1c-.18-1.81-.39-3.63-.6-5.45-.24-2.05-.48-4.1-.67-6.16-.18-1.9-.38-3.82-.59-5.74s-.4-3.83-.58-5.76h-6.64c.13,1.11.26,2.21.37,3.31s.22,2.26.3,3.39c.13,1.85.34,3.7.55,5.56l.13,1.21c.19,1.68.33,3.36.48,5l.18,2c.19,2.17.39,4.37.66,6.58l-.15,0c-.85-1.19-1.67-2.37-2.48-3.54s-1.62-2.34-2.42-3.5c-1.05-1.53-2.13-3-3.2-4.56l-1.61-2.29c-.7-1-1.38-2-2.06-3q-1.31-1.89-2.61-3.75c-.79-1.11-1.58-2.2-2.36-3.28s-1.54-2.14-2.34-3.24h-4.67c.12,1.63.27,3.22.41,4.81.18,2,.35,3.93.49,5.87s.31,3.89.48,5.83c.15,1.66.3,3.31.43,4.94.13,1.8.29,3.6.45,5.4s.32,3.61.45,5.43.3,3.6.46,5.41.31,3.56.45,5.35l3.43.33,3.47.37c-.09-1.07-.19-2.1-.28-3.13s-.21-2.18-.3-3.21-.17-1.85-.26-2.76c-.12-1.23-.24-2.46-.33-3.67-.1-1.42-.23-2.85-.36-4.27l-.19-2.23c-.18-2.1-.36-4.22-.58-6.29l.15-.06c1.28,1.78,2.52,3.58,3.76,5.39l.87,1.26c.74,1.08,1.5,2.15,2.26,3.22s1.68,2.37,2.5,3.57l1.48,2.16c1.1,1.59,2.2,3.2,3.28,4.83l1.82,2.69c1,1.47,2,3,3,4.45Zm2.7.52-2.72-.36-2.72-.35,0,0c-1-1.49-2-3-3-4.48-.62-.9-1.24-1.81-1.83-2.69-1.07-1.62-2.18-3.23-3.27-4.82l-1.49-2.16c-.82-1.2-1.66-2.39-2.5-3.57s-1.52-2.15-2.26-3.22l-.87-1.27c-1.17-1.71-2.35-3.43-3.57-5.13.21,2,.38,4,.55,6l.19,2.22c.13,1.42.25,2.85.36,4.28.09,1.22.21,2.45.33,3.66.09.94.18,1.87.26,2.76.09,1.1.19,2.16.29,3.21s.21,2.19.3,3.23v.11l-.11,0-3.57-.37-3.5-.34h-.07v-.07c-.13-1.8-.29-3.61-.45-5.42s-.32-3.6-.45-5.41-.3-3.61-.46-5.42-.31-3.6-.45-5.41-.27-3.3-.42-4.94c-.18-2-.35-3.9-.49-5.83s-.31-3.91-.49-5.86c-.14-1.65-.29-3.29-.42-4.9v-.09h4.94l0,0c.79,1.08,1.57,2.16,2.37,3.27l2.35,3.29q1.32,1.86,2.62,3.75l2.06,3,1.61,2.28c1.07,1.52,2.16,3.06,3.19,4.56.81,1.17,1.61,2.34,2.43,3.51s1.51,2.18,2.28,3.27c-.24-2.09-.43-4.19-.62-6.26l-.18-2c-.14-1.68-.29-3.37-.47-5l-.14-1.2c-.21-1.87-.41-3.72-.55-5.57-.07-1.13-.18-2.26-.29-3.38s-.25-2.26-.39-3.4v-.09h7v.07c.18,1.94.38,3.89.59,5.83s.4,3.82.58,5.74.44,4.1.67,6.16c.21,1.81.42,3.62.6,5.45.26,2.57.5,5.16.73,7.75l.36,3.92c.18,1.93.39,3.87.59,5.82s.41,3.91.59,5.87v.11Zm72.44-1.33c.23-1.4.46-2.81.7-4.19-.65-1.51-1.3-3-1.93-4.53s-1.26-3-1.87-4.56c-.45-1.11-.9-2.21-1.36-3.31-.75-1.83-1.51-3.68-2.21-5.48-2.89-.27-5.83-.52-8.78-.77l-8.77-.74h0l0,0c-.55-1.3-1.16-2.59-1.77-3.86l-.54-1.15v0c.2-.92.43-1.82.67-2.73.16-.61.33-1.22.47-1.82l0-.07h.06l8.66.4,8.65.43c.92-3.73,1.94-7.5,3-11.3L447,69H420.89l-.58,2.93c-.33,1.64-.66,3.28-1,5.13-.19,1-.38,2-.58,3-.31,1.65-.63,3.32-1,5,.95,2,1.8,4.11,2.65,6.18l.74,1.8c.56,1.34,1.15,2.68,1.76,4s1.23,2.7,1.85,4.06l8.77,1.08c3,.36,5.92.74,8.88,1.13h0l0,0c.5,1.11,1,2.21,1.4,3.31q.43,1.08.87,2.13v0c-.26,1.43-.59,2.83-.93,4.24l-.09.38h-.08c-3-.5-6-1-8.93-1.46s-5.89-.94-8.82-1.4c-.73,2-1.41,4-2.08,6-.57,1.68-1.14,3.36-1.72,5q6.84,1.31,13.71,2.7c4.57.94,9.14,1.9,13.69,2.91.29-1.38.55-2.75.81-4.14s.51-2.82.76-4.29S451.5,115.72,451.75,114.21Zm.87-4.18c-.25,1.41-.48,2.81-.71,4.21s-.49,3-.75,4.49-.5,2.88-.76,4.29-.53,2.81-.82,4.23l0,.08h-.08q-6.89-1.53-13.78-2.94c-4.58-.93-9.19-1.84-13.8-2.72l-.1,0,0-.09c.6-1.7,1.18-3.39,1.75-5.09.68-2,1.36-4,2.1-6l0-.06h.06l8.9,1.4c2.95.47,5.9,1,8.85,1.45l.06-.22c.33-1.41.66-2.79.92-4.21-.31-.72-.59-1.41-.87-2.11-.44-1.08-.88-2.17-1.37-3.26l-8.83-1.13-8.81-1.08h-.05l0,0c-.64-1.37-1.27-2.75-1.88-4.1s-1.2-2.71-1.75-4l-.75-1.81c-.85-2.07-1.7-4.14-2.65-6.2V85c.37-1.63.69-3.31,1-5,.19-1,.38-2,.58-3,.33-1.61.68-3.37,1-5.12l.62-3.06h26.48l-.44,1.65c-1,3.83-2.07,7.63-3,11.36v.07h-.07L435,81.48l-8.58-.4L426,82.83c-.24.9-.48,1.8-.67,2.69l.53,1.13c.6,1.25,1.2,2.53,1.76,3.82l8.71.73c2.9.25,5.84.5,8.84.78h.05l0,0c.71,1.82,1.47,3.68,2.23,5.53.46,1.12.92,2.24,1.35,3.31.62,1.53,1.24,3,1.87,4.56s1.28,3,1.94,4.55ZM405.67,89.78c.54,1.49,1.08,3,1.58,4.46v0c-.19,1.41-.42,2.83-.64,4.25l-.4,2.56c-.17,1.14-.34,2.27-.5,3.39s-.32,2.25-.45,3.38v.08h-.08l-5.9-.74-5.76-.69h-.07v-.07c-.1-.88-.22-1.76-.35-2.64-.18-1.36-.37-2.71-.51-4.07-.07-.74-.15-1.5-.24-2.26-.16-1.49-.32-3-.44-4.45s-.28-3-.44-4.48l-.24-2.18c-.11-1.1-.25-2.22-.38-3.33s-.27-2.21-.39-3.33v-.09h.1l5.74.19,5.78.21h.06l0,0c.43,1.32.94,2.66,1.45,4,.39,1,.77,2,1.13,3Zm1.42,4.5c-.51-1.49-1-3-1.58-4.44l-1-2.69c-.36-1-.74-2-1.12-3-.51-1.33-1-2.64-1.44-4L396.27,80l-5.65-.19c.11,1.07.24,2.15.37,3.23s.27,2.21.39,3.33c.07.72.15,1.45.23,2.18.16,1.5.33,3,.45,4.49s.28,3,.44,4.44l.24,2.26c.14,1.35.32,2.71.51,4.06.12.87.24,1.73.34,2.59l5.7.68,5.81.74c.14-1.11.29-2.21.44-3.31s.34-2.26.51-3.39c.12-.8.26-1.68.4-2.56C406.67,97.1,406.89,95.7,407.09,94.28Zm6.34,9.25c.4-2.83.81-5.68,1.28-8.54-.23-.58-.46-1.19-.7-1.79-.64-1.63-1.27-3.25-1.84-4.86-.28-.79-.55-1.61-.82-2.43-.46-1.39-.92-2.77-1.44-4.12l-.09-.23c-.82-2.13-1.62-4.19-2.32-6.24-.36-1.07-.74-2.13-1.12-3.19s-.77-2.08-1.17-3.14H382.63c.17,1.65.36,3.31.54,5,.25,2.24.5,4.47.72,6.73.25,2.55.53,5.12.8,7.69l.8,7.63c.29,2.78.58,5.57.85,8.36.2,2,.4,4,.62,5.95s.44,3.93.69,5.9q5.79.82,11.68,1.75t11.72,1.87c.37-2.85.8-5.68,1.23-8.53.19-1.26.39-2.53.57-3.78S413.24,104.87,413.43,103.53ZM414.88,95c-.46,2.83-.88,5.71-1.28,8.55-.2,1.35-.39,2.69-.58,4s-.38,2.53-.57,3.78c-.44,2.89-.87,5.76-1.25,8.61V120l-.09,0q-5.93-1-11.8-1.89t-11.74-1.75h-.06v-.07q-.37-3-.7-6c-.22-2-.42-4-.61-6-.27-2.78-.57-5.58-.86-8.37l-.8-7.62c-.27-2.57-.54-5.13-.79-7.7-.22-2.23-.47-4.47-.72-6.72-.19-1.68-.38-3.36-.55-5.06v-.09h22.87l0,0c.41,1.06.81,2.12,1.2,3.19s.76,2.13,1.12,3.2c.7,2,1.49,4.11,2.31,6.23l.09.23c.52,1.35,1,2.74,1.45,4.13.27.8.53,1.61.82,2.43.57,1.61,1.2,3.23,1.84,4.85l.7,1.81ZM30.41,110c.65-1.52,1.3-3,1.94-4.55-.36-1.63-.71-3.28-1.05-4.93s-.67-3.34-1-5v0c.71-1.61,1.4-3.24,2.1-4.86.8-1.87,1.6-3.74,2.43-5.61-.48-2-.89-4-1.29-6l-.39-1.94c-.29-1.47-.57-2.92-.85-4.38-.24-1.21-.47-2.44-.72-3.68H7.79q-.41,3.65-.86,7.26c-.3,2.44-.62,4.89-.94,7.33s-.68,5-1,7.43-.69,4.89-1,7.33c-.16,1.25-.33,2.49-.49,3.73s-.31,2.47-.46,3.72c-.19,1.64-.41,3.3-.63,5l-.63,4.87c-.22,1.69-.44,3.39-.64,5.09-.12,1-.25,2-.37,3-.19,1.46-.37,2.93-.53,4.37,4.19-.94,8.42-1.86,12.65-2.77,4.07-.86,8.16-1.71,12.24-2.54.67-1.58,1.32-3.17,2-4.73.55-1.36,1.1-2.69,1.66-4S29.84,111.32,30.41,110Zm2.11-4.51c-.63,1.51-1.29,3-2,4.57-.56,1.3-1.13,2.62-1.72,4s-1.09,2.64-1.65,4c-.64,1.57-1.29,3.17-2,4.78l0,0h0c-4.06.82-8.17,1.67-12.27,2.55-4.28.91-8.55,1.84-12.77,2.79l-.11,0v-.11c.17-1.5.35-3,.54-4.49.13-1,.25-2,.37-3,.2-1.68.42-3.39.64-5.09l.64-4.87c.21-1.65.43-3.3.63-5,.14-1.23.3-2.47.46-3.73s.32-2.49.49-3.72c.33-2.46.67-4.9,1-7.34s.7-5,1-7.42.64-4.88.95-7.33.59-4.89.86-7.33v-.07h24.1v.06c.25,1.24.49,2.5.73,3.75.28,1.48.57,3,.86,4.37L33.73,79c.4,2,.81,4.05,1.28,6v.06c-.83,1.87-1.63,3.75-2.44,5.64-.69,1.6-1.37,3.2-2.09,4.83.32,1.67.65,3.33,1,5s.69,3.3,1.05,5Z"/><path class="cls-10" d="M250.9,3.72c-.05,2-.05,4-.1,6h12.64c-.05,1-.05,1.93-.05,2.89h11.06a1.38,1.38,0,0,1,1.33-.85,1.4,1.4,0,0,1,1.39,1.34,1.47,1.47,0,0,1-1.44,1.33,1.28,1.28,0,0,1-1.28-.89H262.4c0-.95,0-1.92.05-2.9H250.8c0,2.39,0,4.78-.05,7.17h34.66a1.43,1.43,0,0,1,1.34-.87,1.36,1.36,0,0,1,1.33,1.33,1.45,1.45,0,0,1-1.38,1.34,1.29,1.29,0,0,1-1.29-.87H250.75c0,1.29,0,2.58-.05,3.86h-.89L250,3.72h.94"/><path class="cls-10" d="M206,3.72c0,2,0,4,.05,6H193.42c.05,1,.05,1.93.05,2.89H182.41a1.42,1.42,0,0,0-2.72.49,1.46,1.46,0,0,0,1.43,1.33,1.29,1.29,0,0,0,1.29-.89h12.05c0-.95,0-1.92-.05-2.9h11.65c0,2.39,0,4.78.05,7.17H171.44a1.41,1.41,0,0,0-1.33-.87,1.35,1.35,0,0,0-1.33,1.33,1.45,1.45,0,0,0,1.38,1.34,1.27,1.27,0,0,0,1.28-.87h34.67c0,1.29,0,2.58,0,3.86h.89C207,16.28,207,10,207,3.72H206"/><path class="cls-12" d="M26.72,105.05c-.32-1.6-.73-3.16-1-4.74-4.49.55-9.08,1.12-13.48,1.72-.45,3.32-.86,6.66-1.31,10,4.54-.81,9.16-1.54,13.65-2.25.82-1.63,1.5-3.2,2.18-4.77M29.4,84c-.41-1.48-.77-3-1.14-4.45-4.4.21-8.8.41-13.15.63-.5,3.36-.95,6.75-1.41,10.11,4.45-.4,8.85-.76,13.29-1.13C27.81,87.45,28.58,85.74,29.4,84Zm34.88,7.19c.32-2.19.52-4.35.77-6.53s.45-4.34.68-6.49c-4.67.16-9.3.32-13.92.5-.28,2.24-.53,4.52-.73,6.77s-.59,4.55-.82,6.84C54.89,91.91,59.61,91.53,64.28,91.19Zm4.54,23.58-7.13,1c.32-2.34.61-4.65.82-7s.45-4.64.68-6.94c-4.72.5-9.43,1-14.11,1.59-.36,2.41-.63,4.87-.9,7.28s-.55,4.88-.77,7.33c-2.41.38-4.86.82-7.17,1.24.36-3.4.81-6.79,1.18-10.16s.72-6.75,1.13-10.11S43.28,92.3,43.69,89s.81-6.68,1.27-10c2.17-3.89,4.4-7.71,6.39-11.51H68.54C70,71,71.31,74.47,72.63,78c-.28,3.06-.68,6.11-1,9.17s-.59,6.11-.91,9.18-.75,6.16-1,9.24S69.09,111.69,68.82,114.77Zm38-47.35c-1.86,3.25-3.9,6.52-5.9,9.82l-6.85.17c-.22,2.9-.5,5.79-.77,8.68s-.5,5.8-.77,8.7-.59,5.81-.82,8.72-.54,5.81-.77,8.73c-2.4.27-4.76.56-7.12.86.27-3,.55-5.95.82-8.9s.59-5.94.9-8.9.53-5.92.78-8.87.63-5.89.9-8.84l-6.76.19c-1.4-3.42-2.58-6.87-4.08-10.36Zm34.16,0c-1.86,3-3.77,6.09-5.63,9.16l-6.85.11c-.22,2.69-.41,5.38-.59,8.06s-.32,5.37-.5,8-.5,5.38-.63,8.07-.36,5.38-.55,8.07l-7.07.58c.13-2.73.43-5.47.59-8.2s.45-5.45.63-8.16.41-5.46.64-8.18.45-5.44.63-8.16l-6.8.13c-1.45-3.14-2.81-6.32-4.27-9.53Zm30.12,30.25c-1.91,3-3.72,6-5.54,8.94-7.35.33-14.65.75-21.86,1.17.18-3.36.43-6.73.59-10.1s.43-6.72.63-10.08.32-6.71.55-10,.45-6.71.68-10.07c0,0,0-.06,0-.06h6.72c-.14,2.58-.3,5.16-.41,7.74s-.21,5.17-.36,7.75-.32,5.16-.46,7.74-.32,5.18-.45,7.77C157.86,98.13,164.44,97.89,171.11,97.67Zm34.11-30.25c-1.63,2.85-3.4,5.7-5.13,8.54l-15.33.1c-.09,2.26-.23,4.54-.36,6.8,5.76-.08,11.43-.13,17.28-.18-1.68,2.59-3.4,5.19-5,7.82-4.13.07-8.39.12-12.52.21,0,2.2-.14,4.43-.18,6.68,6.53-.16,13.25-.29,19.91-.39-1.81,2.86-3.63,5.73-5.39,8.62-7.31.17-14.57.38-21.91.64.13-3.24.22-6.48.31-9.72s.25-6.48.37-9.71.34-6.48.45-9.71.32-6.46.36-9.7Zm31.12,0c-1.68,2.84-3.36,5.66-5,8.48l-15.33,0c-.1,1.74-.14,3.49-.14,5.23s0,3.49,0,5.23-.09,3.5-.09,5.26v5.24l12.88,0V90.29H224c-1.58-2.59-3.17-5.15-4.62-7.71,5.44,0,10.84,0,16.37,0,0,2.38-.09,4.75-.09,7.13s0,4.75.09,7.13c-1.77,2.81-3.49,5.63-5.21,8.44l-16.61.1c-1.72-2.81-3.44-5.62-5.08-8.44,0-1.73,0-3.47,0-5.2s0-3.47,0-5.21.14-3.47.14-5.21.09-3.48.14-5.24c1.76-2.88,3.49-5.78,5.21-8.67ZM265,80c-.59-1.34-1.27-2.64-1.91-4l-13.25,0c0,2.73.1,5.46.14,8.18l13.34.11C263.87,82.79,264.46,81.39,265,80Zm7.93,26c-2.26-.08-4.67-.13-7-.19-.13-3.15-.22-6.27-.36-9.39-.73-1.16-1.5-2.3-2.09-3.43-4.49-.07-8.93-.12-13.38-.16,0,2.12,0,4.22.09,6.33s.09,4.24.09,6.36c-2.31,0-4.67-.08-7-.09-.05-3.16-.12-6.32-.14-9.47s-.09-6.33-.09-9.5S243,80.06,243,76.9s-.09-6.31-.09-9.48h23.68c.86,2,1.81,3.93,2.72,5.92s1.86,4,2.86,5.94c-1.23,3-2.5,6-3.77,8.9,1.41,2.21,2.77,4.45,4.22,6.71,0,1.83.09,3.68.18,5.5S272.9,104.07,272.94,105.92Zm29.62-7.71c-.13-1.82-.2-3.66-.31-5.48s-.27-3.67-.37-5.5-.18-3.63-.27-5.47-.13-3.65-.22-5.47l-15.56-.16c.09,1.78.2,3.57.27,5.36s.09,3.59.18,5.38.11,3.58.18,5.38.23,3.6.32,5.39C292,97.81,297.26,98,302.56,98.21Zm7,.15c-1.59,3-3.13,5.91-4.72,8.83q-9.79-.51-19.46-.92c-2-3-3.76-6-5.62-9-.09-1.75-.16-3.5-.23-5.26s-.23-3.51-.27-5.28-.07-3.5-.09-5.25S279,78,279,76.21c1.58-2.93,3.13-5.84,4.71-8.79h18.87c2,3,3.86,6,5.77,9.09.13,1.84.18,3.66.27,5.47s.18,3.62.32,5.45.22,3.66.31,5.48S309.46,96.54,309.55,98.36Zm35,2c-1.49,3.1-3,6.2-4.49,9.27-5.94-.49-11.88-1-17.73-1.38-2-3.22-4-6.39-6-9.56-.18-2.61-.32-5.21-.45-7.82s-.32-5.22-.5-7.82-.32-5.18-.46-7.77-.36-5.2-.54-7.81h6.85v.06c.23,2.64.34,5.28.5,7.91s.38,5.28.59,7.92.29,5.28.45,7.91.45,5.3.68,7.94c4.67.26,9.3.55,14.15.86-.22-2.73-.56-5.46-.72-8.18s-.34-5.44-.55-8.14-.43-5.44-.63-8.15-.41-5.42-.68-8.13h6.85c.18,2.74.45,5.48.68,8.21s.48,5.47.68,8.21.52,5.51.68,8.25S344.3,97.57,344.52,100.31ZM381.4,114l-5.39-.7c-1.55-2.41-3.25-4.83-4.81-7.17s-3.2-4.7-4.77-7-3.2-4.53-4.76-6.8-3-4.45-4.63-6.65c.23,2.13.41,4.27.59,6.4s.39,4.26.55,6.4.41,4.29.59,6.42.41,4.3.59,6.45c-2.41-.27-4.76-.5-7.08-.72-.27-3.61-.63-7.23-.91-10.83s-.63-7.22-.9-10.83-.66-7.19-.91-10.77-.64-7.17-.91-10.76h4.81c1.59,2.18,3.15,4.34,4.72,6.55s3.08,4.44,4.67,6.71,3.24,4.56,4.81,6.85,3.22,4.67,4.9,7c-.27-2.27-.48-4.56-.68-6.81s-.39-4.53-.64-6.79-.52-4.52-.68-6.77-.41-4.51-.68-6.78h6.81c.36,3.86.81,7.72,1.18,11.57s.88,7.72,1.27,11.61.72,7.78,1.08,11.66S381,110.06,381.4,114Zm73.22-5.44c-.5,2.9-1,5.87-1.45,8.7s-1,5.68-1.59,8.52q-13.74-3-27.58-5.65c1.31-3.68,2.49-7.41,3.85-11.13,5.95.92,11.84,1.86,17.83,2.86.36-1.51.73-3,1-4.54-.77-1.82-1.45-3.61-2.27-5.43-5.9-.78-11.88-1.51-17.69-2.22-1.27-2.75-2.52-5.47-3.63-8.14s-2.18-5.36-3.4-8c.59-2.62,1.06-5.34,1.59-7.94.55-2.75,1.09-5.42,1.63-8.12h26.31c-1.18,4.36-2.36,8.66-3.4,12.91-5.85-.3-11.62-.57-17.38-.84-.36,1.52-.81,3-1.13,4.55.77,1.64,1.59,3.31,2.31,5,5.81.48,11.71,1,17.6,1.52,1.14,2.91,2.41,5.93,3.59,8.84S453.3,105.46,454.62,108.52ZM409.26,92.78c-.82-2.39-1.71-4.78-2.54-7.15s-1.82-4.72-2.59-7c-3.86-.15-7.71-.28-11.52-.4.23,2.22.54,4.43.77,6.65s.5,4.44.68,6.67.45,4.47.68,6.7.59,4.49.86,6.72c3.77.44,7.71.93,11.66,1.43.27-2.25.61-4.5.95-6.77S408.94,95.06,409.26,92.78Zm7.62.71c-.68,4.2-1.25,8.43-1.86,12.56s-1.27,8.29-1.82,12.39c-7.89-1.29-15.74-2.53-23.54-3.64-.5-4-.93-8-1.32-11.91S387.53,95,387.12,91s-.84-7.88-1.23-11.8-.86-7.85-1.27-11.78h22.73c.82,2.13,1.59,4.25,2.31,6.38s1.56,4.26,2.41,6.47,1.5,4.36,2.27,6.55S416,91.25,416.88,93.49ZM34.52,104c-1.18,2.82-2.41,5.59-3.67,8.57-1.19,2.82-2.36,5.81-3.63,8.79-8.35,1.69-16.78,3.49-25,5.34.27-2.48.61-5,.91-7.47s.63-5,1-7.48.66-5,1-7.44.62-5,1-7.45C6.61,91.9,7.33,87,8,82.08S9.26,72.3,9.8,67.42h24c.55,2.71,1,5.44,1.59,8.12s1,5.34,1.68,8c-1.54,3.49-3,7-4.54,10.49C33.12,97.37,33.8,100.67,34.52,104Z"/><path class="cls-13" d="M449.76,119.64c.41-1.76.59-3.56,1-5.29s.63-3.56.9-5.36c-.86-2.08-1.77-4.17-2.63-6.32s-1.9-4.55-2.76-6.85c-3.23-.37-6.54-.72-9.71-1-2.63-.26-5.54-.86-8.17-1.11-1.72-3.73-3.08-7.09-4.76-11,.82-3.72,0,0,1.81-8.63l2.91.08c5.26.13,10.66.27,15.92.42.14-.6.27-1.15.45-1.75-6.71-.14-13.29-.27-20-.39-.68,3.46-1.32,6.87-2,10.25,1.77,4,3.4,8.41,5.17,12.31,5.9.62,11.93,1.26,18,1.94,1.59,4,3.27,8.1,5,12.17-.59,2.92-1.23,5.8-1.68,8.66-1.14-.21-2.09-.4-3.09-.6q-8.37-1.56-16.6-3a6.42,6.42,0,0,0-.54,1.54c7,1.26,13.92,2.55,20.95,4"/><path class="cls-13" d="M410.25,111.42l-2.9-.41c-3.9-.56-7.85-1.1-11.79-1.6l-2.36-.3c-.32-3-.61-6-.95-9s-.64-6-1-9-.72-6-1-8.92-.54-6-.86-8.92l3.22.06c3.77.06,7.58.14,11.34.22l1.41,0c.23.77.57,1.48.86,2.29.84,2.3,1.62,4.67,2.45,7s1.72,4.76,2.63,7.11c.5,1.29,1,2.62,1.5,4-.55,3.23-.95,6-1.32,8.73s-.81,5.47-1.27,8.65M414,93.86c-1.36-3.71-2.72-7.42-4-11.06s-2.63-7.15-3.9-10.68c-6.17-.1-11.89,0-18.06-.06.32,3.19.64,6.4.95,9.6s.75,6.41,1.05,9.62.61,6.43.95,9.64.68,6.45,1.09,9.67c6.53.87,12.56,1.55,19.14,2.51.46-3.18.89-6.37,1.36-9.57S413.52,97.09,414,93.86Z"/><path class="cls-13" d="M378.09,109c-.32-3.12-.63-6.24-.95-9.35s-.59-6.23-.91-9.33-.68-6.2-1-9.3-.59-6.18-.86-9.27c-.63,0-.54.19-1.09.18.32,2.8.55,5.61.82,8.4s.61,5.62.86,8.43.5,5.63.77,8.45.5,5.63.82,8.46c-1.95-2.68-3.72-5.32-5.58-7.95-1.63-2.37-3.31-4.71-4.9-7s-3.13-4.61-4.72-6.91c-1.45-2.07-3-4.13-4.4-6.18s-2.85-4.07-4.26-6.08c-.41,0-.45.09-.86.09.27,2.9.45,5.82.68,8.74s.59,5.83.81,8.75.5,5.86.73,8.78.5,5.86.77,8.79c.64.06.46-.8,1.09-.74-.23-2.63-.48-5.26-.68-7.88s-.5-5.25-.68-7.87-.45-5.23-.68-7.85-.45-5.23-.68-7.84c1.77,2.6,3.63,5.23,5.49,7.9,1.59,2.21,3.14,4.41,4.67,6.66s3.13,4.5,4.67,6.76,2.89,4.31,4.36,6.46,3,4.38,4.44,6.59l1.27.14"/><path class="cls-13" d="M267.23,81.67c-.64,1.46-1.14,2.93-1.77,4.37-.27.61-.45,1.19-.73,1.78l-1.36,0c-4.44-.06-8.93-.1-13.38-.14l-3.22,0c-.05-2.57-.16-5.16-.18-7.74s-.05-5.17-.14-7.77l3.4,0,13.25,0c.5,0,1.09,0,1.77,0,1.09,2.41,2.22,4.79,3.36,7.18-.37.8-.64,1.58-1,2.34M247,101.61c0-2.11-.07-4.22-.09-6.33s0-4.22,0-6.34c1,0,2.17,0,3.31,0,4.44,0,8.89.07,13.33.14h1.14c.31.44.54.86.81,1.3.64,1.09,1.32,2.17,2,3.26s1.18,1.91,1.72,2.86c.05,1.84.09,3.67.23,5.48l1,0a9.66,9.66,0,0,1-.09-1.61c0-1.37-.09-2.76-.14-4.15-1.22-1.9-2.45-3.82-3.58-5.72a19.93,19.93,0,0,0-1.36-2.08c.41-.8.68-1.59,1-2.39.95-2.26,1.95-4.52,2.86-6.78-.64-1.32-1.23-2.63-1.86-4s-1.27-2.86-2-4.31L245.5,71c0,2.55,0,5.11.05,7.65s0,5.1,0,7.63,0,5.13,0,7.68.09,5.11.09,7.66Z"/><path class="cls-13" d="M164.53,102.76c.27-.42.41-.82.73-1.24-4.68.18-9.39.39-14.07.63l-3.22.16c.18-2.59.3-5.2.41-7.79s.34-5.19.5-7.78.25-5.18.41-7.78.32-5.2.5-7.8h-1c-.22,2.7-.45,5.4-.59,8.1s-.24,5.4-.4,8.1-.32,5.41-.46,8.11-.31,5.42-.5,8.11c6-.31,11.66-.6,17.65-.83"/><path class="cls-13" d="M135,71.25l-19.37.15c.1.44.37.85.5,1.3l5.49-.06,3.13,0c-.18,2.71-.47,5.42-.68,8.12s-.47,5.41-.63,8.12-.41,5.42-.59,8.13-.41,5.42-.55,8.14l1.14-.1c.09-2.7.27-5.4.45-8.1s.41-5.41.59-8.11.39-5.4.59-8.11.45-5.4.68-8.11l2.81,0c1.86,0,3.86,0,5.67-.06a5.69,5.69,0,0,0,.77-1.26"/><path class="cls-13" d="M100.84,71.53l-19.46.21c.14.49.32.93.5,1.41l5.49-.09c1.09,0,2.22,0,3.22-.07-.32,2.94-.59,5.89-.82,8.82s-.7,5.87-1,8.83-.54,5.89-.82,8.84-.5,5.91-.77,8.86c.64-.07.46-.2,1.09-.27.23-2.93.43-5.86.68-8.78s.52-5.86.77-8.77.62-5.84.86-8.76.55-5.84.87-8.75L94.22,73l5.81-.07a6.68,6.68,0,0,1,.81-1.36"/><path class="cls-13" d="M68.77,78.81c-.68-1.8-1.5-3.62-2.13-5.43-.27,0-.59,0-.77,0-4.45.07-8.85.16-13.25.25-1.45,2.73-2.95,5.48-4.35,8.26-.37,2.56-.57,5.13-.91,7.68s-.68,5.12-.91,7.67c1.27-.08,2.45-.16,3.77-.29q6.93-.68,14.06-1.3l2.63-.22c.23-2.77.59-5.55.91-8.32s.68-5.54,1-8.32m.82.23c-.18,2.61-.5,5.21-.77,7.82s-.55,5.21-.82,7.81-.55,5.23-.82,7.84-.5,5.24-.77,7.86c-.59.07-.36,0-1,.09.23-2.3.39-4.6.64-6.89s.54-4.59.82-6.89c-1.18.14-2.36.27-3.54.38-4.68.43-9.48.91-14.25,1.38-.9.1-1.95.2-2.81.28-.27,2.46-.54,4.91-.82,7.37s-.54,4.9-.77,7.37l-.9.15c.22-2.72.61-5.43.9-8.13s.66-5.41,1-8.13.61-5.41.9-8.1.59-5.39,1-8.09c1.58-3,3.26-6,4.85-9h1.09l13.61-.2C67.82,74.32,68.73,76.69,69.59,79Z"/><path class="cls-13" d="M232.35,96v-1.4c0-2.82-.1-5.67-.1-8.52-2.72,0-4.67,0-7.34,0a5.27,5.27,0,0,0,.45,1.05h5.81c.09,3.3.09,5.59.09,8.74-.87,1.5-1.64,3-2.36,4.46h-.18l-12.93,0h-.55c-.68-1.5-1.45-3-2.22-4.5q0-4.61,0-9.2c0-3.08.09-6.15.13-9.21.86-1.78,1.86-3.58,2.77-5.39h14.24a7.3,7.3,0,0,1,.68-1.16H215.61c-1.14,2.15-2.18,4.29-3.36,6.44-.05,3-.05,6-.09,9s-.14,6-.23,9c1,1.87,2.18,4.44,3.18,6.12l14.15-.06h.14c.95-1.64,1.86-3.54,2.95-5.49"/><path class="cls-13" d="M304.42,78.16c-1.17-1.93-2.31-3.88-3.44-5.82l-15.15-.09h-.32c-.77,1.84-1.63,3.65-2.45,5.45.09,3.1.14,6.2.27,9.29s.36,6.18.55,9.26c.9,1.68,1.86,3.35,2.81,5h0q8,.3,15.93.65l.31,0c.77-1.51,1.64-3,2.45-4.58-.09-3.2-.34-6.4-.5-9.59s-.4-6.4-.5-9.6m.91-.74c.05.5.09,1,.09,1.5.18,3.11.37,6.25.55,9.38s.31,6.27.45,9.39c-1,2.06-1.59,3.14-2.81,5.49-5.35-.26-10.84-.48-16.24-.7h-.64l-.27,0c-1.4-2.26,0,0-3.72-6.46-.18-3.09-.34-6.19-.41-9.28s-.18-6.2-.27-9.31c.86-2.1,1.95-4.5,2.86-6.33l16.65.07C302.84,73.15,304.11,75.27,305.33,77.42Z"/><path class="cls-13" d="M341.53,99.33a9.54,9.54,0,0,0-.14-1.66l-1.08-13.16c-.37-4.37-.64-8.75-1.05-13.15h-.9q.27,3.44.49,6.88c.16,2.28.37,4.57.55,6.87s.38,4.58.54,6.87.46,4.58.68,6.88c-.9,1.7-1.77,3.41-2.49,5.11l-.5,0c-4.67-.33-9.21-.65-13.79-.94-1.13-1.91-2.22-3.81-3.27-5.74-.31-4.3-.59-8.62-.9-12.92s-.59-8.6-.87-12.91h-1.08c.27,4.3.49,8.59.77,12.87l.81,12.88c1.32,2.41,2.63,4.81,4,7,5.08.33,10.25.7,15.38,1.09.95-2,1.9-4,2.81-6"/><path class="cls-13" d="M182.54,72.22v.11h2.27l14.15,0a8.23,8.23,0,0,0,.68-1.15h0a.14.14,0,0,1,0-.13c-6.31,0-11.93,0-18.28,0-.14,2.61-.32,5.21-.41,7.81s-.2,5.21-.32,7.81-.13,5.2-.22,7.81-.23,5.21-.32,7.82c6-.19,11.29-.32,17.37-.45a9,9,0,0,1,.68-1.19c-4.67.1-9.43.2-14.15.32l-2.68.09c.05-1.3.09-2.62.14-3.93.09-2.21.23-4.4.27-6.61.05-1,0-2,0-3l1.72,0c4.17-.07,8.44-.13,12.66-.18.27-.4.45-.78.72-1.17-5,0-10.07.12-15,.2,0-1.22.09-2.47.13-3.72.09-2.26.27-4.56.32-6.82.05-1.16.09-2.34.14-3.53h.18"/><path class="cls-13" d="M28.72,95c-6.35.69-12.8,1.38-19.1,2.1-.41,3.51-.86,7-1.32,10.53s-.9,7-1.36,10.55l3.81-.74c4.67-.9,9.12-1.71,13.66-2.5.36-.07.68-.13,1.09-.19,1.58-3.83,3.17-7.61,4.94-11.37-.68-2.77-1.22-5.57-1.72-8.38M9.89,94.74c6.26-.64,12.48-1.21,18.69-1.77.09-.2.23-.43.32-.66,1.36-3.34,2.86-6.64,4.22-9.9-.64-2.75-1.09-5.51-1.77-8.33l-2.91.08c-4.44.08-8.84.4-13.24.35l-2.68-.05c-.5,3.37-.86,6.74-1.31,10.11S10.3,91.35,9.89,94.74Zm1.86-21.91c-.5,4.13-1.16,8.26-1.68,12.38S9,93.48,8.48,97.64Q7.67,103.27,7,108.89T5.54,120.18c6.85-1.38,13.83-2.72,20.68-4,1-2.29,1.91-4.58,2.81-6.84.82-2,1.73-4,2.63-6-.63-2.4-1.13-4.26-1.58-6.69-.18-1-.37-1.9-.55-2.89q2.32-5.69,4.72-11.32c-.63-3.24-1.5-6.59-2.22-10.07Z"/><path class="cls-14" d="M238.93,6.44h0a.93.93,0,0,0-.31-.68l0,0h0l-.11-.07L228.89.13l-.08,0a.89.89,0,0,0-.85,0l-9.59,5.54a.89.89,0,0,0-.44.77v11.1a.9.9,0,0,0,.47.78L228,23.85l.06,0h0l.09,0h0l.08,0h0l.08,0h.21l.09,0h0l.08,0h0l.08,0h0l.05,0,9.59-5.53a.9.9,0,0,0,.47-.78V6.44Zm-17.24-.36,6.53-3.77a.4.4,0,0,1,.42,0l6.53,3.77a.41.41,0,0,1,.15.57.54.54,0,0,1-.15.15l-6.53,3.77a.45.45,0,0,1-.42,0L221.69,6.8a.41.41,0,0,1-.15-.57A.31.31,0,0,1,221.69,6.08ZM227.3,20.4a.42.42,0,0,1-.63.36L220.16,17a.41.41,0,0,1-.21-.36V9.12a.41.41,0,0,1,.41-.42.37.37,0,0,1,.21.06l6.52,3.76a.41.41,0,0,1,.21.36Zm9.61-3.76a.41.41,0,0,1-.21.36l-6.52,3.76a.4.4,0,0,1-.56-.15.37.37,0,0,1-.06-.21V12.88a.41.41,0,0,1,.21-.36l6.51-3.76a.41.41,0,0,1,.57.15.37.37,0,0,1,.06.21Z"/></g></g></svg>