<svg width="24" height="24" viewBox="0 0 24 24" fill="none" xmlns="http://www.w3.org/2000/svg">
<path d="M4.49961 6.7002C4.29961 6.7002 4.09961 6.9002 4.09961 7.1002C4.09961 7.3002 4.29961 7.5002 4.49961 7.5002C4.69961 7.5002 4.89961 7.3002 4.89961 7.1002C4.89961 6.9002 4.69961 6.7002 4.49961 6.7002Z" fill="#9FEF00" stroke="#9FEF00" stroke-linecap="round" stroke-linejoin="round"/>
<path d="M4.49961 15.7002C4.29961 15.7002 4.09961 15.9002 4.09961 16.1002C4.09961 16.3002 4.29961 16.5002 4.49961 16.5002C4.69961 16.5002 4.89961 16.3002 4.89961 16.1002C4.89961 15.9002 4.69961 15.7002 4.49961 15.7002Z" fill="#9FEF00" stroke="#9FEF00" stroke-linecap="round" stroke-linejoin="round"/>
<path d="M18.7998 2.6001C21.2998 2.6001 23.2998 4.6001 23.2998 7.1001C23.2998 9.6001 21.2998 11.6001 18.7998 11.6001H5.2998C2.7998 11.6001 0.799805 9.6001 0.799805 7.1001C0.799805 4.6001 2.7998 2.6001 5.2998 2.6001H18.7998V2.6001Z" stroke="white" stroke-linecap="round" stroke-linejoin="round"/>
<path d="M18.7998 11.6C20.3998 11.6 21.8998 12.5 22.6998 13.8C23.4998 15.2 23.4998 16.9 22.6998 18.3C21.8998 19.7 20.3998 20.5 18.7998 20.5H5.2998C2.7998 20.5 0.799805 18.5 0.799805 16C0.799805 13.5 2.7998 11.5 5.2998 11.5H18.7998V11.6Z" stroke="white" stroke-linecap="round" stroke-linejoin="round"/>
<path d="M10.5 7.1001H18.8" stroke="#9FEF00" stroke-linecap="round" stroke-linejoin="round"/>
<path d="M10.5 16.1001H18.8" stroke="#9FEF00" stroke-linecap="round" stroke-linejoin="round"/>
</svg>
