<svg width="24" height="24" viewBox="0 0 24 24" fill="none" xmlns="http://www.w3.org/2000/svg">
<path d="M20.5002 13.9061C22.0704 13.1803 23.0547 11.5861 23.0002 9.85712C22.9813 8.57766 22.4427 7.36095 21.5083 6.48672C20.5739 5.6125 19.3241 5.15597 18.0462 5.22212C16.9068 2.92886 14.5608 1.48468 12.0002 1.50012C8.5107 1.4533 5.58693 4.12916 5.32518 7.60912C4.28342 7.38007 3.19385 7.63007 2.35614 8.29036C1.51844 8.95065 1.02083 9.95167 1.00018 11.0181C0.917023 12.5768 1.97539 13.9662 3.50018 14.3001" stroke="white" stroke-linecap="round" stroke-linejoin="round"/>
<path d="M12 12.5V18.5" stroke="#9FEF00" stroke-linecap="round" stroke-linejoin="round"/>
<path d="M15 15.5H9" stroke="#9FEF00" stroke-linecap="round" stroke-linejoin="round"/>
<path fill-rule="evenodd" clip-rule="evenodd" d="M12.535 22.4L13.088 22.189C15.718 21.189 18 18.666 18 15.852V12.456C18.0002 12.0401 17.7535 11.6638 17.372 11.498C15.646 10.853 13.8205 10.5146 11.978 10.498C10.1494 10.5137 8.33787 10.8522 6.627 11.498C6.24592 11.6641 5.99964 12.0404 6 12.456V15.849C6 18.663 8.238 21.185 10.868 22.187L11.421 22.398C11.7795 22.5352 12.176 22.5359 12.535 22.4Z" stroke="#9FEF00" stroke-linecap="round" stroke-linejoin="round"/>
</svg>
