<svg width="24" height="24" viewBox="0 0 24 24" fill="none" xmlns="http://www.w3.org/2000/svg">
<path fill-rule="evenodd" clip-rule="evenodd" d="M20.0713 6.92705C20.0545 5.94061 19.6371 5.00345 18.915 4.33117C18.193 3.65889 17.2284 3.30938 16.2433 3.36305C15.3588 1.5964 13.547 0.486124 11.5713 0.500053C8.88148 0.461195 6.624 2.51823 6.41329 5.20005C5.61057 5.02248 4.7705 5.21351 4.1235 5.72074C3.47649 6.22796 3.09046 6.99815 3.07129 7.82005C3.07129 10.5421 6.02729 10.5001 6.02729 10.5001H16.7453C16.7453 10.5001 20.0713 10.0791 20.0713 6.92705Z" stroke="white" stroke-linecap="round" stroke-linejoin="round"/>
<path d="M6.32129 20.749C6.18335 20.749 6.07147 20.8608 6.07129 20.9987C6.07111 21.1366 6.18268 21.2487 6.32062 21.249C6.45856 21.2494 6.57074 21.138 6.57129 21C6.57155 20.9336 6.5453 20.8699 6.49836 20.823C6.45142 20.776 6.38767 20.7498 6.32129 20.75" stroke="#9FEF00" stroke-linecap="round" stroke-linejoin="round"/>
<path d="M8.82129 20.749C8.68335 20.749 8.57147 20.8608 8.57129 20.9987C8.57111 21.1366 8.68268 21.2487 8.82062 21.249C8.95856 21.2494 9.07074 21.138 9.07129 21C9.07155 20.9336 9.0453 20.8699 8.99836 20.823C8.95142 20.776 8.88767 20.7498 8.82129 20.75" stroke="#9FEF00" stroke-linecap="round" stroke-linejoin="round"/>
<path fill-rule="evenodd" clip-rule="evenodd" d="M20.0713 22C20.0713 22.8284 19.3997 23.5 18.5713 23.5H4.57129C3.74286 23.5 3.07129 22.8284 3.07129 22V20C3.07129 19.1716 3.74286 18.5 4.57129 18.5H18.5713C19.3997 18.5 20.0713 19.1716 20.0713 20V22Z" stroke="#9FEF00" stroke-linecap="round" stroke-linejoin="round"/>
<path d="M6.32129 15.749C6.18335 15.749 6.07147 15.8608 6.07129 15.9987C6.07111 16.1366 6.18268 16.2487 6.32062 16.249C6.45856 16.2494 6.57074 16.138 6.57129 16C6.57155 15.9336 6.5453 15.8699 6.49836 15.823C6.45142 15.776 6.38767 15.7498 6.32129 15.75" stroke="#9FEF00" stroke-linecap="round" stroke-linejoin="round"/>
<path d="M8.82129 15.749C8.68335 15.749 8.57147 15.8608 8.57129 15.9987C8.57111 16.1366 8.68268 16.2487 8.82062 16.249C8.95856 16.2494 9.07074 16.138 9.07129 16C9.07155 15.9336 9.0453 15.8699 8.99836 15.823C8.95142 15.776 8.88767 15.7498 8.82129 15.75" stroke="#9FEF00" stroke-linecap="round" stroke-linejoin="round"/>
<path fill-rule="evenodd" clip-rule="evenodd" d="M20.0713 17C20.0713 17.8284 19.3997 18.5 18.5713 18.5H4.57129C3.74286 18.5 3.07129 17.8284 3.07129 17V15C3.07129 14.1716 3.74286 13.5 4.57129 13.5H18.5713C19.3997 13.5 20.0713 14.1716 20.0713 15V17Z" stroke="#9FEF00" stroke-linecap="round" stroke-linejoin="round"/>
</svg>
