<svg width="24" height="24" viewBox="0 0 24 24" fill="none" xmlns="http://www.w3.org/2000/svg">
<g clip-path="url(#clip0)">
<path d="M22.0232 6.45222L22.0235 6.44431C22.0234 6.31585 21.9955 6.18892 21.9417 6.07228C21.8879 5.95564 21.8094 5.85206 21.7117 5.76868L21.6826 5.74472L21.6739 5.73784C21.64 5.71159 21.6041 5.68801 21.5665 5.66731L11.9696 0.126505C11.9464 0.11273 11.9227 0.099965 11.8985 0.0882116C11.7644 0.023613 11.6162 -0.00633179 11.4674 0.00111504C11.3187 0.00856187 11.1743 0.0531625 11.0472 0.13084L1.445 5.67444C1.30986 5.75247 1.19765 5.8647 1.11963 5.99984C1.04161 6.13498 1.00054 6.28828 1.00055 6.44432L1.00118 6.46353L1 6.48477V17.5555C0.999954 17.7163 1.04355 17.8742 1.12614 18.0122C1.20872 18.1502 1.32721 18.2632 1.46897 18.3391L11.0675 23.8809C11.0853 23.8911 11.1033 23.9007 11.1216 23.9096L11.1254 23.9113C11.1526 23.9243 11.1804 23.936 11.2087 23.9462L11.2205 23.9506C11.2484 23.9603 11.2766 23.9683 11.3051 23.9751L11.3213 23.9789C11.3498 23.9851 11.3784 23.9901 11.4073 23.9935L11.421 23.9949C11.4815 24.0017 11.5426 24.0017 11.6031 23.9949L11.6168 23.9935C11.6457 23.9901 11.6743 23.9851 11.7028 23.9789L11.7189 23.9751C11.7474 23.9683 11.7757 23.9603 11.8036 23.9506L11.8153 23.9462C11.8437 23.936 11.8715 23.9243 11.8986 23.9113L11.9025 23.9096C11.9207 23.9006 11.9387 23.8911 11.9565 23.8809L21.5551 18.3391C21.6969 18.2632 21.8153 18.1502 21.8979 18.0121C21.9805 17.8741 22.0241 17.7163 22.024 17.5555V6.4779L22.0232 6.45222ZM4.7663 6.08224L11.303 2.30822C11.3666 2.27151 11.4387 2.25218 11.5121 2.25218C11.5856 2.25218 11.6577 2.27151 11.7213 2.30822L18.2579 6.08214C18.3215 6.11885 18.3743 6.17164 18.411 6.23522C18.4477 6.29879 18.467 6.37091 18.467 6.44432C18.467 6.51773 18.4477 6.58985 18.411 6.65343C18.3743 6.717 18.3215 6.7698 18.2579 6.80651L11.7212 10.5805C11.6576 10.6172 11.5855 10.6365 11.5121 10.6365C11.4386 10.6365 11.3665 10.6172 11.3029 10.5805L4.7663 6.80659C4.70273 6.76988 4.64993 6.71709 4.61323 6.65351C4.57652 6.58994 4.5572 6.51782 4.5572 6.44441C4.5572 6.371 4.57652 6.29888 4.61323 6.23531C4.64993 6.17173 4.70273 6.11894 4.7663 6.08224ZM10.3797 20.4271C10.3797 20.5003 10.3604 20.5723 10.3238 20.6357C10.2872 20.6992 10.2345 20.7518 10.1711 20.7885C10.1077 20.8251 10.0357 20.8444 9.96246 20.8444C9.88922 20.8444 9.81727 20.8251 9.75384 20.7884L3.22987 17.0218C3.16644 16.9852 3.11377 16.9325 3.07715 16.8691C3.04053 16.8056 3.02125 16.7337 3.02125 16.6605V9.12794C3.02125 9.0547 3.04053 8.98275 3.07715 8.91932C3.11377 8.85589 3.16644 8.80322 3.22987 8.7666C3.2933 8.72998 3.36525 8.7107 3.43849 8.7107C3.51173 8.7107 3.58369 8.72998 3.64711 8.7666L10.171 12.5332C10.2345 12.5698 10.2871 12.6225 10.3238 12.6859C10.3604 12.7494 10.3797 12.8213 10.3797 12.8946L10.3797 20.4271ZM20.0028 16.6605C20.0028 16.7337 19.9835 16.8057 19.9469 16.8691C19.9103 16.9325 19.8576 16.9852 19.7942 17.0218L13.2702 20.7884C13.2068 20.8251 13.1348 20.8444 13.0616 20.8444C12.9884 20.8444 12.9164 20.8251 12.853 20.7885C12.7895 20.7518 12.7369 20.6992 12.7002 20.6357C12.6636 20.5723 12.6444 20.5003 12.6444 20.4271V12.8946C12.6444 12.8213 12.6636 12.7494 12.7003 12.6859C12.7369 12.6225 12.7895 12.5698 12.853 12.5332L19.3769 8.7666C19.4403 8.72998 19.5123 8.7107 19.5855 8.7107C19.6588 8.7107 19.7307 8.72998 19.7941 8.7666C19.8576 8.80322 19.9102 8.85589 19.9469 8.91932C19.9835 8.98275 20.0028 9.05471 20.0028 9.12795L20.0028 16.6605Z" fill="#9FEF00"/>
</g>
<defs>
<clipPath id="clip0">
<rect width="24" height="24" fill="white"/>
</clipPath>
</defs>
</svg>
