<?xml version="1.0" encoding="UTF-8"?>
<svg width="32px" height="32px" viewBox="0 0 32 32" version="1.1" xmlns="http://www.w3.org/2000/svg" xmlns:xlink="http://www.w3.org/1999/xlink">
    <!-- Generator: Sketch 59.1 (86144) - https://sketch.com -->
    <title>ic-menu-battlegrounds</title>
    <desc>Created with Sketch.</desc>
    <defs>
        <circle id="path-1" cx="16.1626922" cy="16" r="16"></circle>
    </defs>
    <g id="ic-menu-battlegrounds" stroke="none" stroke-width="1" fill="none" fill-rule="evenodd">
        <g id="Shape-+-Shape-+-Shape-+-Shape-Mask" transform="translate(-0.000000, 0.000000)">
            <mask id="mask-2" fill="white">
                <use xlink:href="#path-1"></use>
            </mask>
            <use id="Mask" fill="#111927" fill-rule="nonzero" xlink:href="#path-1"></use>
            <path d="M20.2951215,0.553866667 C15.0125722,-0.779813333 8.97067355,0.564605333 4.83820155,4.69706667 C0.808801023,8.72297365 -0.775314006,14.5881101 0.679318882,20.0952" id="Path" fill="#1A2332" fill-rule="nonzero" mask="url(#mask-2)"></path>
            <path d="M12.0302629,31.4461333 C17.3128149,32.7798133 23.3547109,31.4353947 27.4871829,27.3029333 C31.5165834,23.2770263 33.1006984,17.4118899 31.6460655,11.9048" id="Path" fill="#1A2332" fill-rule="nonzero" mask="url(#mask-2)"></path>
            <path d="M31.9599589,9.09324933 L23.4966655,9.09324933 C21.671513,9.09488966 20.1928031,10.574928 20.1928031,12.4000813 C20.1928031,14.2252346 21.671513,15.705273 23.4966655,15.7069133 L31.9599589,15.7069133 C33.142083,15.7079736 34.2348652,15.0779274 34.8262339,14.0543545 C35.4176026,13.0307815 35.4176026,11.7693811 34.8262339,10.7458082 C34.2348652,9.72223522 33.142083,9.09218911 31.9599589,9.09324933 L31.9599589,9.09324933 Z M23.0257935,13.120776 C22.6276787,13.1206862 22.3050157,12.7978775 22.3051056,12.3997627 C22.3051954,12.0016479 22.6280041,11.6789849 23.0261189,11.6790747 C23.4242337,11.6791645 23.7468967,12.0019732 23.7468069,12.400088 C23.7464391,12.7980876 23.4237932,13.1205878 23.0257935,13.120776 L23.0257935,13.120776 Z M31.9599589,12.885816 L26.7879962,12.885816 C26.5197331,12.885816 26.3022629,12.6683458 26.3022629,12.4000827 C26.3022629,12.1318196 26.5197331,11.9143493 26.7879962,11.9143493 L31.9599589,11.9143493 C32.228222,11.9143493 32.4456922,12.1318196 32.4456922,12.4000827 C32.4456922,12.6683458 32.228222,12.885816 31.9599589,12.885816 L31.9599589,12.885816 Z" id="Shape" fill="#FFFFFF" fill-rule="nonzero" mask="url(#mask-2)"></path>
            <path d="M34.8237375,17.9469813 C34.2316722,16.9251907 33.140888,16.2953584 31.9599589,16.2934 L23.4966655,16.2934 C21.6704396,16.2934 20.1899909,17.7738487 20.1899909,19.6000747 C20.1899909,21.4263007 21.6704396,22.9067493 23.4966655,22.9067493 L31.9599589,22.9067493 C33.1413074,22.9068405 34.23296,22.2766589 34.8236737,21.2536039 C35.4143875,20.2305488 35.4144118,18.9700592 34.8237375,17.9469813 Z M23.0257935,20.3212373 C22.7341728,20.3212373 22.4712682,20.145565 22.3596721,19.8761416 C22.2480759,19.6067182 22.309765,19.2966001 22.5159739,19.090395 C22.7221829,18.8841899 23.0323022,18.8225064 23.3017235,18.9341076 C23.5711448,19.0457088 23.7468069,19.3086166 23.7468069,19.6002373 C23.7465759,19.9983441 23.4239004,20.3210137 23.0257935,20.3212373 Z M31.9599589,20.0859653 L26.7879962,20.0859653 C26.5197331,20.0859653 26.3022629,19.8684951 26.3022629,19.600232 C26.3022629,19.3319689 26.5197331,19.1144987 26.7879962,19.1144987 L31.9599589,19.1144987 C32.228222,19.1144987 32.4456922,19.3319689 32.4456922,19.600232 C32.4456922,19.8684951 32.228222,20.0859653 31.9599589,20.0859653 L31.9599589,20.0859653 Z" id="Shape" fill="#FFFFFF" fill-rule="nonzero" mask="url(#mask-2)"></path>
            <path d="M0.376468215,22.9067507 L8.83975888,22.9067507 C10.6649115,22.9051103 12.1436213,21.425072 12.1436213,19.5999187 C12.1436213,17.7747654 10.6649115,16.294727 8.83975888,16.2930867 L0.376468215,16.2930867 C-0.8056559,16.2920264 -1.89843808,16.9220726 -2.4898068,17.9456455 C-3.08117551,18.9692185 -3.08117551,20.2306189 -2.4898068,21.2541918 C-1.89843808,22.2777648 -0.8056559,22.9078109 0.376468215,22.9067507 L0.376468215,22.9067507 Z M9.31063355,18.879224 C9.70874836,18.8793138 10.0314114,19.2021225 10.0313215,19.6002373 C10.0312317,19.9983521 9.70842302,20.3210151 9.3103082,20.3209253 C8.91219339,20.3208355 8.58953039,19.9980268 8.5896202,19.599912 C8.589988,19.2019124 8.91263385,18.8794122 9.31063355,18.879224 Z M0.376468215,19.114184 L5.54843088,19.114184 C5.81669399,19.114184 6.03416421,19.3316542 6.03416421,19.5999173 C6.03416421,19.8681804 5.81669399,20.0856507 5.54843088,20.0856507 L0.376468215,20.0856507 C0.108205102,20.0856507 -0.109265118,19.8681804 -0.109265118,19.5999173 C-0.109265118,19.3316542 0.108205102,19.114184 0.376468215,19.114184 Z" id="Shape" fill="#FFFFFF" fill-rule="nonzero" mask="url(#mask-2)"></path>
            <path d="M-2.48731312,14.0530187 C-1.89524611,15.0748089 -0.804461452,15.704641 0.376468215,15.7066 L8.83975888,15.7066 C10.6659849,15.7066 12.1464335,14.2261513 12.1464335,12.3999253 C12.1464335,10.5736993 10.6659849,9.09325067 8.83975888,9.09325067 L0.376468215,9.09325067 C-0.804373419,9.095221 -1.89510625,9.72489917 -2.48731312,10.7465067 C-3.07614232,11.7700326 -3.07614232,13.0294928 -2.48731312,14.0530187 Z M9.31063355,11.6787627 C9.60225431,11.6787627 9.86515885,11.854435 9.97675504,12.1238584 C10.0883512,12.3932818 10.0266621,12.7033999 9.82045315,12.909605 C9.61424423,13.1158101 9.30412494,13.1774936 9.03470362,13.0658924 C8.76528231,12.9542912 8.58962021,12.6913834 8.58962021,12.3997627 C8.58985119,12.0016559 8.91252675,11.6789863 9.31063355,11.6787627 L9.31063355,11.6787627 Z M0.376468215,11.9140347 L5.54843088,11.9140347 C5.81669399,11.9140347 6.03416421,12.1315049 6.03416421,12.399768 C6.03416421,12.6680311 5.81669399,12.8855013 5.54843088,12.8855013 L0.376468215,12.8855013 C0.108205102,12.8855013 -0.109265118,12.6680311 -0.109265118,12.399768 C-0.109265118,12.1315049 0.108205102,11.9140347 0.376468215,11.9140347 L0.376468215,11.9140347 Z" id="Shape" fill="#FFFFFF" fill-rule="nonzero" mask="url(#mask-2)"></path>
        </g>
    </g>
</svg>