<?xml version="1.0" encoding="UTF-8"?>
<svg width="32px" height="32px" viewBox="0 0 32 32" version="1.1" xmlns="http://www.w3.org/2000/svg" xmlns:xlink="http://www.w3.org/1999/xlink">
    <!-- Generator: Sketch 59.1 (86144) - https://sketch.com -->
    <title>ic-menu-ctf</title>
    <desc>Created with Sketch.</desc>
    <defs>
        <circle id="path-1" cx="16" cy="16" r="16"></circle>
    </defs>
    <g id="ic-menu-ctf" stroke="none" stroke-width="1" fill="none" fill-rule="evenodd">
        <g id="ic-ctf">
            <g id="Shape" transform="translate(-0.000000, -0.000000)">
                <mask id="mask-2" fill="white">
                    <use xlink:href="#path-1"></use>
                </mask>
                <use id="Mask" fill="#111927" fill-rule="nonzero" xlink:href="#path-1"></use>
                <path d="M22.279288,1.11910481e-13 C26.2591,3.97981146 27.8133938,9.78051336 26.356682,15.2170374 C24.8999701,20.6535615 20.6535618,24.8999703 15.2170379,26.3566828 C9.78051402,27.8133953 3.97981193,26.2591022 -2.23820962e-13,22.2792906 L22.279288,1.11910481e-13 Z" id="Path" fill="#1A2332" fill-rule="nonzero" mask="url(#mask-2)" transform="translate(13.446920, 13.446920) rotate(-180.000000) translate(-13.446920, -13.446920) "></path>
                <path d="M16.0546243,33.0635204 L16.3850479,32.971182 C16.7028685,32.8823421 16.8885077,32.5526929 16.7996994,32.2348634 L11.5183701,13.6091343 C11.4650619,13.418345 11.3381443,13.2565477 11.1655391,13.1593379 C10.992934,13.062128 10.7887811,13.037469 10.5979943,13.0907858 L10.5553224,13.1027009 C10.1580077,13.2137125 9.92590984,13.6257888 10.0369135,14.0231057 L15.3183372,32.6488401 C15.4071464,32.9666712 15.7367928,33.1523308 16.0546243,33.0635231 L16.0546243,33.0635204 Z" fill="#FFFFFF" fill-rule="nonzero" mask="url(#mask-2)"></path>
            </g>
            <g id="Page-1" transform="translate(11.977430, 9.927174)" fill="#FFFFFF" fill-rule="nonzero">
                <g id="_037---Waypoint-Flag">
                    <path d="M2.35934907,11.4852818 C2.4082517,11.6532541 2.53719312,11.7860896 2.70363651,11.8399667 C2.87007989,11.8938439 3.05240387,11.8617641 3.19046108,11.7543101 C6.8623915,9.01204769 12.4789886,13.2340784 15.8060124,9.25688069 C15.9854906,9.04026544 16.0195268,8.64418511 15.8771856,8.58229617 L15.8771856,8.58229617 C14.6791721,7.98493683 13.5708822,7.22246757 12.5847152,6.31717808 C12.5018195,6.24129589 12.4693972,6.12481661 12.5011647,6.01701761 C12.9897993,4.16846612 13.3526773,2.28894341 13.5873077,0.39135155 C13.6244422,0.0757208141 13.4542482,-0.0171139175 13.2747726,0.19949608 C9.8294769,4.31992509 3.92273877,-0.359817621 0.272440998,3.02061169 C0.124538988,3.15577243 0.0649430206,3.362467 0.118182059,3.55562247 L2.35934907,11.4852818 Z" id="Shape-2"></path>
                </g>
            </g>
        </g>
    </g>
</svg>