<?xml version="1.0" encoding="UTF-8"?>
<svg width="32px" height="32px" viewBox="0 0 32 32" version="1.1" xmlns="http://www.w3.org/2000/svg" xmlns:xlink="http://www.w3.org/1999/xlink">
    <!-- Generator: Sketch 59.1 (86144) - https://sketch.com -->
    <title>ic-menu-careers</title>
    <desc>Created with Sketch.</desc>
    <defs>
        <circle id="path-1" cx="16.0000008" cy="16" r="16"></circle>
        <path d="M0.000165333333,-7.63833441e-14 C6.20808786,2.36381017 10.3109024,8.31623241 10.3109024,14.9589653 C10.3109024,21.6016983 6.20808786,27.5541205 0.000165333333,29.9179307 L0.000165333333,-7.63833441e-14 Z" id="path-3"></path>
    </defs>
    <g id="ic-menu-careers" stroke="none" stroke-width="1" fill="none" fill-rule="evenodd">
        <g id="Group-31">
            <circle id="Oval" fill="#111927" fill-rule="nonzero" cx="16.0000008" cy="16" r="16"></circle>
            <g id="Group-20">
                <mask id="mask-2" fill="white">
                    <use xlink:href="#path-1"></use>
                </mask>
                <use id="Mask" fill="#111927" fill-rule="nonzero" xlink:href="#path-1"></use>
                <g mask="url(#mask-2)" fill="#FFFFFF" fill-rule="nonzero">
                    <g transform="translate(0.000000, 6.609195)">
                        <path d="M14.9112755,9.48899467 L3.82336966e-07,9.48899467 L3.82336966e-07,15.5890293 C-0.000377975491,16.2482685 0.261336019,16.8806157 0.72748856,17.3467682 C1.1936411,17.8129208 1.82598832,18.0746348 2.48522746,18.0742564 L19.2038675,18.0742564 C19.8631068,18.0746355 20.4954544,17.8129217 20.9616071,17.346769 C21.4277598,16.8806163 21.6894736,16.2482687 21.6890945,15.5890293 L21.6890945,9.48899467 L14.9112755,9.48899467 Z" id="Path"></path>
                        <path d="M19.2038728,2.711168 L14.4593928,2.711168 L14.4593928,1.80743467 C14.4584006,0.809643983 13.6497915,0.00101573559 12.6520008,-6.40376641e-13 L9.03711813,-6.40376641e-13 C8.0393233,0.00100985714 7.23070765,0.809639824 7.22971546,1.80743467 L7.22971546,2.711168 L2.48523279,2.711168 C1.82599738,2.71078641 1.19365242,2.97249529 0.727499261,3.43864195 C0.261346104,3.9047886 -0.000371605842,4.53712992 3.96026541e-07,5.19636533 L3.96026541e-07,8.133432 L21.6890945,8.133432 L21.6890945,5.19636533 C21.6894665,4.53713177 21.4277503,3.90479207 20.9615994,3.43864572 C20.4954486,2.97249938 19.8631064,2.71078924 19.2038728,2.711168 Z M9.03711813,1.80743467 L12.6520008,1.80743467 L12.6520008,2.711168 L9.03711813,2.711168 L9.03711813,1.80743467 Z" id="Shape"></path>
                    </g>
                </g>
            </g>
            <g id="Rectangle" transform="translate(21.689099, 1.041035)">
                <mask id="mask-4" fill="white">
                    <use xlink:href="#path-3"></use>
                </mask>
                <use id="Mask" fill="#1A2332" fill-rule="nonzero" xlink:href="#path-3"></use>
            </g>
        </g>
    </g>
</svg>